M48
; DRILL file {KiCad 9.0.1} date 2025-04-30T15:54:22+0200
; FORMAT={-:-/ absolute / inch / decimal}
; #@! TF.CreationDate,2025-04-30T15:54:22+02:00
; #@! TF.GenerationSoftware,Kicad,Pcbnew,9.0.1
; #@! TF.FileFunction,Plated,1,2,PTH
FMAT,2
INCH
; #@! TA.AperFunction,Plated,PTH,ViaDrill
T1C0.0079
%
G90
G05
T1
X5.7047Y-3.5669
X5.7047Y-4.0315
X5.7087Y-3.6417
X5.7462Y-3.7843
X5.7469Y-3.8355
X5.7953Y-3.9409
X5.815Y-3.7402
X5.815Y-3.9646
X5.8189Y-3.6811
X5.8228Y-4.0315
X5.8559Y-3.9134
X5.8636Y-3.8583
X5.8648Y-3.7927
X5.8888Y-4.0207
X5.8937Y-3.8661
X5.9055Y-3.563
X5.9252Y-3.802
X5.9331Y-3.7402
X5.937Y-3.6496
X5.9449Y-3.6953
X5.9528Y-3.802
X5.9764Y-3.9252
X5.9961Y-4.0315
X6.0768Y-3.7618
X6.1378Y-3.9252
X6.1378Y-4.0315
X6.1417Y-3.5669
X6.1417Y-3.8189
X6.1457Y-3.6417
M30
