%TF.GenerationSoftware,KiCad,Pcbnew,9.0.1*%
%TF.CreationDate,2025-04-30T15:54:22+02:00*%
%TF.ProjectId,board,626f6172-642e-46b6-9963-61645f706362,rev?*%
%TF.SameCoordinates,Original*%
%TF.FileFunction,Legend,Bot*%
%TF.FilePolarity,Positive*%
%FSLAX46Y46*%
G04 Gerber Fmt 4.6, Leading zero omitted, Abs format (unit mm)*
G04 Created by KiCad (PCBNEW 9.0.1) date 2025-04-30 15:54:22*
%MOMM*%
%LPD*%
G01*
G04 APERTURE LIST*
G04 Aperture macros list*
%AMFreePoly0*
4,1,5,0.500000,-1.800000,-0.500000,-1.800000,-0.500000,1.800000,0.500000,1.900000,0.500000,-1.800000,0.500000,-1.800000,$1*%
%AMFreePoly1*
4,1,5,0.500000,-1.500000,-0.500000,-1.500000,-0.500000,2.300000,0.500000,2.400000,0.500000,-1.500000,0.500000,-1.500000,$1*%
%AMFreePoly2*
4,1,5,0.500000,1.800000,0.500000,-1.800000,-0.500000,-1.800000,-0.500000,1.900000,0.500000,1.800000,0.500000,1.800000,$1*%
%AMFreePoly3*
4,1,5,0.500000,1.700000,0.500000,-1.700000,-0.500000,-1.700000,-0.500000,1.800000,0.500000,1.700000,0.500000,1.700000,$1*%
%AMFreePoly4*
4,1,5,0.500000,1.900000,0.500000,-1.900000,-0.500000,-1.900000,-0.500000,2.000000,0.500000,1.900000,0.500000,1.900000,$1*%
G04 Aperture macros list end*
%ADD10C,0.010000*%
%ADD11FreePoly0,270.000000*%
%ADD12FreePoly1,270.000000*%
%ADD13R,4.000000X1.000000*%
%ADD14FreePoly2,270.000000*%
%ADD15FreePoly3,270.000000*%
%ADD16FreePoly0,90.000000*%
%ADD17R,3.500000X1.000000*%
%ADD18FreePoly2,90.000000*%
%ADD19FreePoly4,90.000000*%
G04 APERTURE END LIST*
D10*
%TO.C,LOGO1*%
X150537275Y-93868931D02*
X150621095Y-94313555D01*
X151239667Y-94568551D01*
X151610707Y-94316246D01*
X151684144Y-94266506D01*
X151781499Y-94201218D01*
X151865787Y-94145454D01*
X151932631Y-94102078D01*
X151977654Y-94073953D01*
X151996478Y-94063942D01*
X152008039Y-94071061D01*
X152042596Y-94100894D01*
X152094894Y-94149852D01*
X152160500Y-94213440D01*
X152234983Y-94287163D01*
X152313913Y-94366525D01*
X152392856Y-94447031D01*
X152467384Y-94524185D01*
X152533063Y-94593493D01*
X152585463Y-94650457D01*
X152620153Y-94690584D01*
X152632701Y-94709377D01*
X152629782Y-94717451D01*
X152609571Y-94753469D01*
X152572663Y-94812744D01*
X152522050Y-94890630D01*
X152460725Y-94982481D01*
X152391679Y-95083650D01*
X152353787Y-95138826D01*
X152288606Y-95234884D01*
X152232723Y-95318717D01*
X152189117Y-95385777D01*
X152160769Y-95431519D01*
X152150657Y-95451396D01*
X152150823Y-95452497D01*
X152159743Y-95477694D01*
X152180206Y-95529147D01*
X152209360Y-95600135D01*
X152244353Y-95683935D01*
X152282332Y-95773828D01*
X152320445Y-95863091D01*
X152355839Y-95945003D01*
X152385662Y-96012843D01*
X152407061Y-96059890D01*
X152417184Y-96079422D01*
X152423174Y-96081155D01*
X152459566Y-96088969D01*
X152524427Y-96101915D01*
X152612565Y-96118979D01*
X152718787Y-96139151D01*
X152837902Y-96161418D01*
X152900683Y-96173223D01*
X153015912Y-96195748D01*
X153116662Y-96216550D01*
X153197426Y-96234435D01*
X153252698Y-96248208D01*
X153276971Y-96256674D01*
X153281331Y-96265066D01*
X153288563Y-96306072D01*
X153294246Y-96374368D01*
X153298382Y-96463529D01*
X153300977Y-96567128D01*
X153302036Y-96678740D01*
X153301561Y-96791938D01*
X153299559Y-96900296D01*
X153296033Y-96997389D01*
X153290987Y-97076790D01*
X153284427Y-97132072D01*
X153276356Y-97156810D01*
X153271458Y-97159600D01*
X153234930Y-97171569D01*
X153171565Y-97187405D01*
X153088686Y-97205374D01*
X152993618Y-97223741D01*
X152961542Y-97229591D01*
X152813393Y-97256798D01*
X152696961Y-97278663D01*
X152608209Y-97296093D01*
X152543103Y-97309996D01*
X152497606Y-97321277D01*
X152467682Y-97330843D01*
X152449294Y-97339601D01*
X152438407Y-97348457D01*
X152437142Y-97349943D01*
X152419338Y-97380931D01*
X152392994Y-97437634D01*
X152360661Y-97513399D01*
X152324893Y-97601574D01*
X152288244Y-97695507D01*
X152253266Y-97788547D01*
X152222513Y-97874041D01*
X152198538Y-97945336D01*
X152183895Y-97995782D01*
X152181136Y-98018726D01*
X152182981Y-98021703D01*
X152202075Y-98050493D01*
X152237984Y-98103595D01*
X152287378Y-98176117D01*
X152346927Y-98263167D01*
X152413303Y-98359854D01*
X152431520Y-98386456D01*
X152495577Y-98481875D01*
X152550937Y-98567212D01*
X152594439Y-98637405D01*
X152622924Y-98687394D01*
X152633232Y-98712116D01*
X152631011Y-98718616D01*
X152607858Y-98750644D01*
X152562177Y-98802945D01*
X152497241Y-98871999D01*
X152416319Y-98954286D01*
X152322685Y-99046286D01*
X152269165Y-99097781D01*
X152184542Y-99177983D01*
X152110475Y-99246678D01*
X152050941Y-99300252D01*
X152009917Y-99335085D01*
X151991381Y-99347563D01*
X151978646Y-99342938D01*
X151939436Y-99321057D01*
X151882495Y-99285273D01*
X151815250Y-99240117D01*
X151767438Y-99207165D01*
X151671985Y-99141727D01*
X151570125Y-99072228D01*
X151477088Y-99009075D01*
X151294832Y-98885800D01*
X151141841Y-98968520D01*
X151105817Y-98987613D01*
X151040303Y-99020272D01*
X150989640Y-99042819D01*
X150962564Y-99051226D01*
X150953703Y-99040430D01*
X150931699Y-98999323D01*
X150899199Y-98931549D01*
X150858010Y-98841409D01*
X150809942Y-98733205D01*
X150756802Y-98611237D01*
X150700399Y-98479808D01*
X150642542Y-98343218D01*
X150585038Y-98205767D01*
X150529697Y-98071758D01*
X150478326Y-97945491D01*
X150432735Y-97831268D01*
X150394732Y-97733390D01*
X150366124Y-97656157D01*
X150348721Y-97603871D01*
X150344331Y-97580833D01*
X150344628Y-97580160D01*
X150365077Y-97558863D01*
X150407850Y-97525508D01*
X150464117Y-97487011D01*
X150481877Y-97475256D01*
X150617014Y-97363735D01*
X150728856Y-97230906D01*
X150814755Y-97082298D01*
X150872062Y-96923440D01*
X150898131Y-96759860D01*
X150890313Y-96597088D01*
X150858644Y-96452315D01*
X150801782Y-96306124D01*
X150718888Y-96175703D01*
X150605131Y-96051813D01*
X150560433Y-96012235D01*
X150415935Y-95914723D01*
X150259838Y-95849050D01*
X150096667Y-95814630D01*
X149930943Y-95810874D01*
X149767192Y-95837194D01*
X149609936Y-95893003D01*
X149463698Y-95977714D01*
X149333004Y-96090737D01*
X149222374Y-96231487D01*
X149201105Y-96266342D01*
X149128810Y-96425655D01*
X149090415Y-96591552D01*
X149084914Y-96759737D01*
X149111301Y-96925913D01*
X149168570Y-97085784D01*
X149255717Y-97235053D01*
X149371736Y-97369423D01*
X149515622Y-97484599D01*
X149520294Y-97487702D01*
X149575964Y-97526933D01*
X149617689Y-97560286D01*
X149636746Y-97580833D01*
X149634342Y-97596941D01*
X149619391Y-97643844D01*
X149592881Y-97716539D01*
X149556620Y-97810725D01*
X149512416Y-97922098D01*
X149462076Y-98046358D01*
X149407407Y-98179202D01*
X149350218Y-98316327D01*
X149292316Y-98453432D01*
X149235510Y-98586215D01*
X149181606Y-98710374D01*
X149132412Y-98821606D01*
X149089737Y-98915609D01*
X149055387Y-98988082D01*
X149031171Y-99034722D01*
X149018897Y-99051226D01*
X149008689Y-99048991D01*
X148968586Y-99032926D01*
X148909318Y-99004759D01*
X148839619Y-98968520D01*
X148686629Y-98885800D01*
X148504373Y-99009075D01*
X148450527Y-99045579D01*
X148350374Y-99113784D01*
X148250525Y-99182098D01*
X148166211Y-99240117D01*
X148119679Y-99271736D01*
X148059200Y-99311020D01*
X148014357Y-99337912D01*
X147992455Y-99347883D01*
X147983045Y-99343650D01*
X147949031Y-99317721D01*
X147896595Y-99272070D01*
X147830301Y-99211186D01*
X147754713Y-99139561D01*
X147674396Y-99061683D01*
X147593913Y-98982045D01*
X147517829Y-98905135D01*
X147450707Y-98835445D01*
X147397112Y-98777464D01*
X147361608Y-98735684D01*
X147348759Y-98714593D01*
X147349500Y-98710581D01*
X147364793Y-98677920D01*
X147397462Y-98621412D01*
X147444350Y-98546163D01*
X147502301Y-98457275D01*
X147568157Y-98359854D01*
X147586627Y-98332982D01*
X147651482Y-98238423D01*
X147708609Y-98154827D01*
X147754678Y-98087084D01*
X147786359Y-98040086D01*
X147800324Y-98018726D01*
X147800668Y-98017811D01*
X147796546Y-97991678D01*
X147780807Y-97938740D01*
X147756004Y-97865647D01*
X147724689Y-97779052D01*
X147689417Y-97685608D01*
X147652740Y-97591965D01*
X147617212Y-97504777D01*
X147585386Y-97430695D01*
X147559816Y-97376371D01*
X147543053Y-97348457D01*
X147541374Y-97346724D01*
X147529372Y-97337956D01*
X147509103Y-97329115D01*
X147476529Y-97319292D01*
X147427616Y-97307583D01*
X147358327Y-97293080D01*
X147264625Y-97274876D01*
X147142476Y-97252066D01*
X146987842Y-97223741D01*
X146955770Y-97217780D01*
X146863893Y-97199352D01*
X146786607Y-97181892D01*
X146731236Y-97167133D01*
X146705105Y-97156810D01*
X146700733Y-97148197D01*
X146693445Y-97106826D01*
X146687669Y-97038241D01*
X146683410Y-96948868D01*
X146680673Y-96845135D01*
X146679462Y-96733465D01*
X146679782Y-96620287D01*
X146681636Y-96512026D01*
X146685030Y-96415108D01*
X146689967Y-96335959D01*
X146696452Y-96281006D01*
X146704489Y-96256674D01*
X146712696Y-96253079D01*
X146753519Y-96241748D01*
X146822524Y-96225722D01*
X146914203Y-96206195D01*
X147023050Y-96184362D01*
X147143558Y-96161418D01*
X147209357Y-96149159D01*
X147322135Y-96127901D01*
X147419207Y-96109287D01*
X147495382Y-96094328D01*
X147545469Y-96084036D01*
X147564276Y-96079422D01*
X147564983Y-96078471D01*
X147576961Y-96054310D01*
X147599794Y-96003694D01*
X147630630Y-95933338D01*
X147666613Y-95849958D01*
X147704891Y-95760270D01*
X147742609Y-95670989D01*
X147776913Y-95588832D01*
X147804949Y-95520513D01*
X147823864Y-95472748D01*
X147830803Y-95452254D01*
X147827742Y-95445043D01*
X147807372Y-95410728D01*
X147770422Y-95352970D01*
X147719860Y-95276299D01*
X147658657Y-95185248D01*
X147589781Y-95084350D01*
X147551994Y-95029093D01*
X147486782Y-94932215D01*
X147430871Y-94847193D01*
X147387241Y-94778662D01*
X147358877Y-94731260D01*
X147348759Y-94709623D01*
X147355790Y-94697887D01*
X147385197Y-94662818D01*
X147433441Y-94609745D01*
X147496093Y-94543164D01*
X147568725Y-94467574D01*
X147646908Y-94387472D01*
X147726214Y-94307354D01*
X147802213Y-94231718D01*
X147870478Y-94165062D01*
X147926580Y-94111882D01*
X147966090Y-94076676D01*
X147984579Y-94063942D01*
X147994843Y-94068893D01*
X148032530Y-94091857D01*
X148093348Y-94130938D01*
X148172913Y-94183272D01*
X148266843Y-94245996D01*
X148370754Y-94316246D01*
X148741794Y-94568551D01*
X149051080Y-94441053D01*
X149360365Y-94313555D01*
X149444186Y-93868931D01*
X149528006Y-93424307D01*
X150453454Y-93424307D01*
X150537275Y-93868931D01*
G36*
X150537275Y-93868931D02*
G01*
X150621095Y-94313555D01*
X151239667Y-94568551D01*
X151610707Y-94316246D01*
X151684144Y-94266506D01*
X151781499Y-94201218D01*
X151865787Y-94145454D01*
X151932631Y-94102078D01*
X151977654Y-94073953D01*
X151996478Y-94063942D01*
X152008039Y-94071061D01*
X152042596Y-94100894D01*
X152094894Y-94149852D01*
X152160500Y-94213440D01*
X152234983Y-94287163D01*
X152313913Y-94366525D01*
X152392856Y-94447031D01*
X152467384Y-94524185D01*
X152533063Y-94593493D01*
X152585463Y-94650457D01*
X152620153Y-94690584D01*
X152632701Y-94709377D01*
X152629782Y-94717451D01*
X152609571Y-94753469D01*
X152572663Y-94812744D01*
X152522050Y-94890630D01*
X152460725Y-94982481D01*
X152391679Y-95083650D01*
X152353787Y-95138826D01*
X152288606Y-95234884D01*
X152232723Y-95318717D01*
X152189117Y-95385777D01*
X152160769Y-95431519D01*
X152150657Y-95451396D01*
X152150823Y-95452497D01*
X152159743Y-95477694D01*
X152180206Y-95529147D01*
X152209360Y-95600135D01*
X152244353Y-95683935D01*
X152282332Y-95773828D01*
X152320445Y-95863091D01*
X152355839Y-95945003D01*
X152385662Y-96012843D01*
X152407061Y-96059890D01*
X152417184Y-96079422D01*
X152423174Y-96081155D01*
X152459566Y-96088969D01*
X152524427Y-96101915D01*
X152612565Y-96118979D01*
X152718787Y-96139151D01*
X152837902Y-96161418D01*
X152900683Y-96173223D01*
X153015912Y-96195748D01*
X153116662Y-96216550D01*
X153197426Y-96234435D01*
X153252698Y-96248208D01*
X153276971Y-96256674D01*
X153281331Y-96265066D01*
X153288563Y-96306072D01*
X153294246Y-96374368D01*
X153298382Y-96463529D01*
X153300977Y-96567128D01*
X153302036Y-96678740D01*
X153301561Y-96791938D01*
X153299559Y-96900296D01*
X153296033Y-96997389D01*
X153290987Y-97076790D01*
X153284427Y-97132072D01*
X153276356Y-97156810D01*
X153271458Y-97159600D01*
X153234930Y-97171569D01*
X153171565Y-97187405D01*
X153088686Y-97205374D01*
X152993618Y-97223741D01*
X152961542Y-97229591D01*
X152813393Y-97256798D01*
X152696961Y-97278663D01*
X152608209Y-97296093D01*
X152543103Y-97309996D01*
X152497606Y-97321277D01*
X152467682Y-97330843D01*
X152449294Y-97339601D01*
X152438407Y-97348457D01*
X152437142Y-97349943D01*
X152419338Y-97380931D01*
X152392994Y-97437634D01*
X152360661Y-97513399D01*
X152324893Y-97601574D01*
X152288244Y-97695507D01*
X152253266Y-97788547D01*
X152222513Y-97874041D01*
X152198538Y-97945336D01*
X152183895Y-97995782D01*
X152181136Y-98018726D01*
X152182981Y-98021703D01*
X152202075Y-98050493D01*
X152237984Y-98103595D01*
X152287378Y-98176117D01*
X152346927Y-98263167D01*
X152413303Y-98359854D01*
X152431520Y-98386456D01*
X152495577Y-98481875D01*
X152550937Y-98567212D01*
X152594439Y-98637405D01*
X152622924Y-98687394D01*
X152633232Y-98712116D01*
X152631011Y-98718616D01*
X152607858Y-98750644D01*
X152562177Y-98802945D01*
X152497241Y-98871999D01*
X152416319Y-98954286D01*
X152322685Y-99046286D01*
X152269165Y-99097781D01*
X152184542Y-99177983D01*
X152110475Y-99246678D01*
X152050941Y-99300252D01*
X152009917Y-99335085D01*
X151991381Y-99347563D01*
X151978646Y-99342938D01*
X151939436Y-99321057D01*
X151882495Y-99285273D01*
X151815250Y-99240117D01*
X151767438Y-99207165D01*
X151671985Y-99141727D01*
X151570125Y-99072228D01*
X151477088Y-99009075D01*
X151294832Y-98885800D01*
X151141841Y-98968520D01*
X151105817Y-98987613D01*
X151040303Y-99020272D01*
X150989640Y-99042819D01*
X150962564Y-99051226D01*
X150953703Y-99040430D01*
X150931699Y-98999323D01*
X150899199Y-98931549D01*
X150858010Y-98841409D01*
X150809942Y-98733205D01*
X150756802Y-98611237D01*
X150700399Y-98479808D01*
X150642542Y-98343218D01*
X150585038Y-98205767D01*
X150529697Y-98071758D01*
X150478326Y-97945491D01*
X150432735Y-97831268D01*
X150394732Y-97733390D01*
X150366124Y-97656157D01*
X150348721Y-97603871D01*
X150344331Y-97580833D01*
X150344628Y-97580160D01*
X150365077Y-97558863D01*
X150407850Y-97525508D01*
X150464117Y-97487011D01*
X150481877Y-97475256D01*
X150617014Y-97363735D01*
X150728856Y-97230906D01*
X150814755Y-97082298D01*
X150872062Y-96923440D01*
X150898131Y-96759860D01*
X150890313Y-96597088D01*
X150858644Y-96452315D01*
X150801782Y-96306124D01*
X150718888Y-96175703D01*
X150605131Y-96051813D01*
X150560433Y-96012235D01*
X150415935Y-95914723D01*
X150259838Y-95849050D01*
X150096667Y-95814630D01*
X149930943Y-95810874D01*
X149767192Y-95837194D01*
X149609936Y-95893003D01*
X149463698Y-95977714D01*
X149333004Y-96090737D01*
X149222374Y-96231487D01*
X149201105Y-96266342D01*
X149128810Y-96425655D01*
X149090415Y-96591552D01*
X149084914Y-96759737D01*
X149111301Y-96925913D01*
X149168570Y-97085784D01*
X149255717Y-97235053D01*
X149371736Y-97369423D01*
X149515622Y-97484599D01*
X149520294Y-97487702D01*
X149575964Y-97526933D01*
X149617689Y-97560286D01*
X149636746Y-97580833D01*
X149634342Y-97596941D01*
X149619391Y-97643844D01*
X149592881Y-97716539D01*
X149556620Y-97810725D01*
X149512416Y-97922098D01*
X149462076Y-98046358D01*
X149407407Y-98179202D01*
X149350218Y-98316327D01*
X149292316Y-98453432D01*
X149235510Y-98586215D01*
X149181606Y-98710374D01*
X149132412Y-98821606D01*
X149089737Y-98915609D01*
X149055387Y-98988082D01*
X149031171Y-99034722D01*
X149018897Y-99051226D01*
X149008689Y-99048991D01*
X148968586Y-99032926D01*
X148909318Y-99004759D01*
X148839619Y-98968520D01*
X148686629Y-98885800D01*
X148504373Y-99009075D01*
X148450527Y-99045579D01*
X148350374Y-99113784D01*
X148250525Y-99182098D01*
X148166211Y-99240117D01*
X148119679Y-99271736D01*
X148059200Y-99311020D01*
X148014357Y-99337912D01*
X147992455Y-99347883D01*
X147983045Y-99343650D01*
X147949031Y-99317721D01*
X147896595Y-99272070D01*
X147830301Y-99211186D01*
X147754713Y-99139561D01*
X147674396Y-99061683D01*
X147593913Y-98982045D01*
X147517829Y-98905135D01*
X147450707Y-98835445D01*
X147397112Y-98777464D01*
X147361608Y-98735684D01*
X147348759Y-98714593D01*
X147349500Y-98710581D01*
X147364793Y-98677920D01*
X147397462Y-98621412D01*
X147444350Y-98546163D01*
X147502301Y-98457275D01*
X147568157Y-98359854D01*
X147586627Y-98332982D01*
X147651482Y-98238423D01*
X147708609Y-98154827D01*
X147754678Y-98087084D01*
X147786359Y-98040086D01*
X147800324Y-98018726D01*
X147800668Y-98017811D01*
X147796546Y-97991678D01*
X147780807Y-97938740D01*
X147756004Y-97865647D01*
X147724689Y-97779052D01*
X147689417Y-97685608D01*
X147652740Y-97591965D01*
X147617212Y-97504777D01*
X147585386Y-97430695D01*
X147559816Y-97376371D01*
X147543053Y-97348457D01*
X147541374Y-97346724D01*
X147529372Y-97337956D01*
X147509103Y-97329115D01*
X147476529Y-97319292D01*
X147427616Y-97307583D01*
X147358327Y-97293080D01*
X147264625Y-97274876D01*
X147142476Y-97252066D01*
X146987842Y-97223741D01*
X146955770Y-97217780D01*
X146863893Y-97199352D01*
X146786607Y-97181892D01*
X146731236Y-97167133D01*
X146705105Y-97156810D01*
X146700733Y-97148197D01*
X146693445Y-97106826D01*
X146687669Y-97038241D01*
X146683410Y-96948868D01*
X146680673Y-96845135D01*
X146679462Y-96733465D01*
X146679782Y-96620287D01*
X146681636Y-96512026D01*
X146685030Y-96415108D01*
X146689967Y-96335959D01*
X146696452Y-96281006D01*
X146704489Y-96256674D01*
X146712696Y-96253079D01*
X146753519Y-96241748D01*
X146822524Y-96225722D01*
X146914203Y-96206195D01*
X147023050Y-96184362D01*
X147143558Y-96161418D01*
X147209357Y-96149159D01*
X147322135Y-96127901D01*
X147419207Y-96109287D01*
X147495382Y-96094328D01*
X147545469Y-96084036D01*
X147564276Y-96079422D01*
X147564983Y-96078471D01*
X147576961Y-96054310D01*
X147599794Y-96003694D01*
X147630630Y-95933338D01*
X147666613Y-95849958D01*
X147704891Y-95760270D01*
X147742609Y-95670989D01*
X147776913Y-95588832D01*
X147804949Y-95520513D01*
X147823864Y-95472748D01*
X147830803Y-95452254D01*
X147827742Y-95445043D01*
X147807372Y-95410728D01*
X147770422Y-95352970D01*
X147719860Y-95276299D01*
X147658657Y-95185248D01*
X147589781Y-95084350D01*
X147551994Y-95029093D01*
X147486782Y-94932215D01*
X147430871Y-94847193D01*
X147387241Y-94778662D01*
X147358877Y-94731260D01*
X147348759Y-94709623D01*
X147355790Y-94697887D01*
X147385197Y-94662818D01*
X147433441Y-94609745D01*
X147496093Y-94543164D01*
X147568725Y-94467574D01*
X147646908Y-94387472D01*
X147726214Y-94307354D01*
X147802213Y-94231718D01*
X147870478Y-94165062D01*
X147926580Y-94111882D01*
X147966090Y-94076676D01*
X147984579Y-94063942D01*
X147994843Y-94068893D01*
X148032530Y-94091857D01*
X148093348Y-94130938D01*
X148172913Y-94183272D01*
X148266843Y-94245996D01*
X148370754Y-94316246D01*
X148741794Y-94568551D01*
X149051080Y-94441053D01*
X149360365Y-94313555D01*
X149444186Y-93868931D01*
X149528006Y-93424307D01*
X150453454Y-93424307D01*
X150537275Y-93868931D01*
G37*
%TD*%
%LPC*%
D11*
%TO.C,J1*%
X142400000Y-92500000D03*
D12*
X142100000Y-94500000D03*
D13*
X142600000Y-96500000D03*
D14*
X142400000Y-98500000D03*
D15*
X142300000Y-100500000D03*
%TD*%
D16*
%TO.C,J2*%
X158600000Y-92500000D03*
D17*
X158650000Y-94500000D03*
X158650000Y-96500000D03*
D18*
X158600000Y-98500000D03*
D19*
X158500000Y-100500000D03*
%TD*%
%LPD*%
M02*
