%TF.GenerationSoftware,KiCad,Pcbnew,9.0.1*%
%TF.CreationDate,2025-04-30T15:54:22+02:00*%
%TF.ProjectId,board,626f6172-642e-46b6-9963-61645f706362,rev?*%
%TF.SameCoordinates,Original*%
%TF.FileFunction,Copper,L1,Top*%
%TF.FilePolarity,Positive*%
%FSLAX46Y46*%
G04 Gerber Fmt 4.6, Leading zero omitted, Abs format (unit mm)*
G04 Created by KiCad (PCBNEW 9.0.1) date 2025-04-30 15:54:22*
%MOMM*%
%LPD*%
G01*
G04 APERTURE LIST*
G04 Aperture macros list*
%AMRoundRect*
0 Rectangle with rounded corners*
0 $1 Rounding radius*
0 $2 $3 $4 $5 $6 $7 $8 $9 X,Y pos of 4 corners*
0 Add a 4 corners polygon primitive as box body*
4,1,4,$2,$3,$4,$5,$6,$7,$8,$9,$2,$3,0*
0 Add four circle primitives for the rounded corners*
1,1,$1+$1,$2,$3*
1,1,$1+$1,$4,$5*
1,1,$1+$1,$6,$7*
1,1,$1+$1,$8,$9*
0 Add four rect primitives between the rounded corners*
20,1,$1+$1,$2,$3,$4,$5,0*
20,1,$1+$1,$4,$5,$6,$7,0*
20,1,$1+$1,$6,$7,$8,$9,0*
20,1,$1+$1,$8,$9,$2,$3,0*%
G04 Aperture macros list end*
%TA.AperFunction,SMDPad,CuDef*%
%ADD10RoundRect,0.250000X1.000000X-0.700000X1.000000X0.700000X-1.000000X0.700000X-1.000000X-0.700000X0*%
%TD*%
%TA.AperFunction,SMDPad,CuDef*%
%ADD11RoundRect,0.140000X0.140000X0.170000X-0.140000X0.170000X-0.140000X-0.170000X0.140000X-0.170000X0*%
%TD*%
%TA.AperFunction,SMDPad,CuDef*%
%ADD12RoundRect,0.135000X0.135000X0.185000X-0.135000X0.185000X-0.135000X-0.185000X0.135000X-0.185000X0*%
%TD*%
%TA.AperFunction,SMDPad,CuDef*%
%ADD13RoundRect,0.225000X0.225000X0.250000X-0.225000X0.250000X-0.225000X-0.250000X0.225000X-0.250000X0*%
%TD*%
%TA.AperFunction,SMDPad,CuDef*%
%ADD14RoundRect,0.135000X-0.135000X-0.185000X0.135000X-0.185000X0.135000X0.185000X-0.135000X0.185000X0*%
%TD*%
%TA.AperFunction,SMDPad,CuDef*%
%ADD15R,3.500000X1.000000*%
%TD*%
%TA.AperFunction,SMDPad,CuDef*%
%ADD16RoundRect,0.087500X0.250000X0.087500X-0.250000X0.087500X-0.250000X-0.087500X0.250000X-0.087500X0*%
%TD*%
%TA.AperFunction,ViaPad*%
%ADD17C,0.500000*%
%TD*%
%TA.AperFunction,Conductor*%
%ADD18C,0.500000*%
%TD*%
%TA.AperFunction,Conductor*%
%ADD19C,0.400000*%
%TD*%
%TA.AperFunction,Conductor*%
%ADD20C,0.200000*%
%TD*%
G04 APERTURE END LIST*
D10*
%TO.P,L1,1*%
%TO.N,/buck/sw*%
X153050000Y-97960000D03*
%TO.P,L1,2*%
%TO.N,/buck/3.3V*%
X153050000Y-93860000D03*
%TD*%
D11*
%TO.P,C58,1*%
%TO.N,/buck/3.3V*%
X149600000Y-95700000D03*
%TO.P,C58,2*%
%TO.N,GND*%
X148640000Y-95700000D03*
%TD*%
D12*
%TO.P,R14,1*%
%TO.N,Net-(U7-FB)*%
X146620000Y-99100000D03*
%TO.P,R14,2*%
%TO.N,/buck/3.3V*%
X145600000Y-99100000D03*
%TD*%
D13*
%TO.P,C3,1*%
%TO.N,/buck/Vin*%
X150500000Y-100000000D03*
%TO.P,C3,2*%
%TO.N,GND*%
X148950000Y-100000000D03*
%TD*%
%TO.P,C6,1*%
%TO.N,/buck/3.3V*%
X149350000Y-94300000D03*
%TO.P,C6,2*%
%TO.N,GND*%
X147800000Y-94300000D03*
%TD*%
D14*
%TO.P,R2,1*%
%TO.N,GND*%
X145580000Y-96100000D03*
%TO.P,R2,2*%
%TO.N,/buck/EN*%
X146600000Y-96100000D03*
%TD*%
D12*
%TO.P,R13,1*%
%TO.N,Net-(U7-FB)*%
X146620000Y-98100000D03*
%TO.P,R13,2*%
%TO.N,/buck/3.3V*%
X145600000Y-98100000D03*
%TD*%
D15*
%TO.P,J1,1,GND*%
%TO.N,GND*%
X142350000Y-92500000D03*
%TO.P,J1,2,NC*%
%TO.N,unconnected-(J1-NC-Pad2)*%
X142350000Y-94500000D03*
%TO.P,J1,3,NC*%
%TO.N,unconnected-(J1-NC-Pad3)*%
X142350000Y-96500000D03*
%TO.P,J1,4,NC*%
%TO.N,unconnected-(J1-NC-Pad4)*%
X142350000Y-98500000D03*
%TO.P,J1,5,NC*%
%TO.N,unconnected-(J1-NC-Pad5)*%
X142350000Y-100500000D03*
%TD*%
D12*
%TO.P,R57,1*%
%TO.N,GND*%
X146620000Y-100100000D03*
%TO.P,R57,2*%
%TO.N,Net-(U7-FB)*%
X145600000Y-100100000D03*
%TD*%
D13*
%TO.P,C2,1*%
%TO.N,/buck/Vin*%
X150500000Y-101500000D03*
%TO.P,C2,2*%
%TO.N,GND*%
X148950000Y-101500000D03*
%TD*%
D15*
%TO.P,J2,1,GND*%
%TO.N,GND*%
X158650000Y-92500000D03*
%TO.P,J2,2,NC*%
%TO.N,unconnected-(J2-NC-Pad2)*%
X158650000Y-94500000D03*
%TO.P,J2,3,NC*%
%TO.N,unconnected-(J2-NC-Pad3)*%
X158650000Y-96500000D03*
%TO.P,J2,4,NC*%
%TO.N,unconnected-(J2-NC-Pad4)*%
X158650000Y-98500000D03*
%TO.P,J2,5,NC*%
%TO.N,unconnected-(J2-NC-Pad5)*%
X158650000Y-100500000D03*
%TD*%
D16*
%TO.P,U7,1,VIN*%
%TO.N,/buck/Vin*%
X149600000Y-97700000D03*
%TO.P,U7,2,SW*%
%TO.N,/buck/sw*%
X149600000Y-97200000D03*
%TO.P,U7,3,GND*%
%TO.N,GND*%
X149600000Y-96700000D03*
%TO.P,U7,4,PG*%
%TO.N,/buck/PG*%
X148175000Y-96700000D03*
%TO.P,U7,5,EN*%
%TO.N,/buck/EN*%
X148175000Y-97200000D03*
%TO.P,U7,6,FB*%
%TO.N,Net-(U7-FB)*%
X148175000Y-97700000D03*
%TD*%
D13*
%TO.P,C5,1*%
%TO.N,/buck/3.3V*%
X149350000Y-92800000D03*
%TO.P,C5,2*%
%TO.N,GND*%
X147800000Y-92800000D03*
%TD*%
D12*
%TO.P,R12,1*%
%TO.N,/buck/PG*%
X146620000Y-95100000D03*
%TO.P,R12,2*%
%TO.N,/buck/3.3V*%
X145600000Y-95100000D03*
%TD*%
%TO.P,R1,1*%
%TO.N,/buck/EN*%
X146620000Y-97100000D03*
%TO.P,R1,2*%
%TO.N,/buck/Vin*%
X145600000Y-97100000D03*
%TD*%
D11*
%TO.P,C4,1*%
%TO.N,/buck/Vin*%
X149700000Y-98700000D03*
%TO.P,C4,2*%
%TO.N,GND*%
X148740000Y-98700000D03*
%TD*%
D17*
%TO.N,/buck/Vin*%
X145972000Y-97422768D03*
X149700000Y-98200000D03*
%TO.N,GND*%
X144900000Y-90600000D03*
X155900000Y-102400000D03*
X151800000Y-99700000D03*
X147800000Y-93500000D03*
X147200000Y-100100000D03*
X147700000Y-100700000D03*
X148740000Y-99400000D03*
X155900000Y-99700000D03*
X148965001Y-96334999D03*
X145953000Y-96120240D03*
X156000000Y-97000000D03*
X150000000Y-90500000D03*
X149575000Y-102125000D03*
X151200000Y-96572000D03*
X147900000Y-102400000D03*
X150800000Y-92700000D03*
X152300000Y-102400000D03*
X147700000Y-95000000D03*
X144900000Y-102400000D03*
X148934500Y-98000000D03*
X156100000Y-92500000D03*
X145000000Y-92500000D03*
X150700000Y-95000000D03*
X150500000Y-96572000D03*
X154350000Y-95550000D03*
X156000000Y-90600000D03*
%TO.N,/buck/3.3V*%
X151000000Y-93860000D03*
%TD*%
D18*
%TO.N,/buck/Vin*%
X145949232Y-97400000D02*
X145972000Y-97422768D01*
X149700000Y-97853000D02*
X149600000Y-97753000D01*
X145600000Y-97100000D02*
X145900000Y-97400000D01*
X149700000Y-98200000D02*
X149700000Y-97853000D01*
X149700000Y-98700000D02*
X149700000Y-98200000D01*
X149700000Y-99200000D02*
X150500000Y-100000000D01*
X150500000Y-100000000D02*
X150500000Y-101500000D01*
X149700000Y-98700000D02*
X149700000Y-99200000D01*
X145900000Y-97400000D02*
X145949232Y-97400000D01*
%TO.N,GND*%
X148950000Y-100000000D02*
X148950000Y-101500000D01*
D19*
X148934500Y-98000000D02*
X148934500Y-96937970D01*
D18*
X145932760Y-96100000D02*
X145953000Y-96120240D01*
X149277001Y-96647000D02*
X149600000Y-96647000D01*
X148400000Y-95700000D02*
X147700000Y-95000000D01*
D19*
X148934500Y-96937970D02*
X149225470Y-96647000D01*
D18*
X158650000Y-92500000D02*
X156100000Y-92500000D01*
X155300000Y-92500000D02*
X155300000Y-94205054D01*
X148640000Y-95700000D02*
X148400000Y-95700000D01*
X148740000Y-98700000D02*
X148740000Y-99400000D01*
X147800000Y-92800000D02*
X147800000Y-93500000D01*
X148950000Y-101500000D02*
X149575000Y-102125000D01*
X148640000Y-95700000D02*
X148640000Y-96009999D01*
X154152527Y-95352527D02*
X152933054Y-96572000D01*
X147800000Y-93500000D02*
X147800000Y-94300000D01*
X147700000Y-95000000D02*
X147700000Y-94400000D01*
D19*
X149225470Y-96647000D02*
X149277001Y-96647000D01*
D18*
X149575000Y-102125000D02*
X149803000Y-102353000D01*
X148640000Y-96009999D02*
X148965001Y-96334999D01*
X149675000Y-96572000D02*
X149600000Y-96647000D01*
X154350000Y-95550000D02*
X154152527Y-95352527D01*
X145580000Y-96100000D02*
X145932760Y-96100000D01*
X155300000Y-92500000D02*
X154119000Y-91319000D01*
X148965001Y-96334999D02*
X149277001Y-96647000D01*
X147200000Y-100100000D02*
X148850000Y-100100000D01*
X154678000Y-95878000D02*
X154350000Y-95550000D01*
X148740000Y-99400000D02*
X148740000Y-99790000D01*
X151200000Y-96572000D02*
X150500000Y-96572000D01*
D19*
X148740000Y-98700000D02*
X148934500Y-98505500D01*
D18*
X148850000Y-100100000D02*
X148950000Y-100000000D01*
X154678000Y-98927054D02*
X154678000Y-95878000D01*
X146620000Y-100100000D02*
X147200000Y-100100000D01*
X142350000Y-92500000D02*
X145000000Y-92500000D01*
X155300000Y-94205054D02*
X154152527Y-95352527D01*
X147700000Y-94400000D02*
X147800000Y-94300000D01*
X156100000Y-92500000D02*
X155300000Y-92500000D01*
X152933054Y-96572000D02*
X151200000Y-96572000D01*
X151252054Y-102353000D02*
X154678000Y-98927054D01*
X146181000Y-91319000D02*
X145000000Y-92500000D01*
X148740000Y-99790000D02*
X148950000Y-100000000D01*
X150500000Y-96572000D02*
X149675000Y-96572000D01*
D19*
X148934500Y-98505500D02*
X148934500Y-98000000D01*
D18*
X149803000Y-102353000D02*
X151252054Y-102353000D01*
X154119000Y-91319000D02*
X146181000Y-91319000D01*
%TO.N,/buck/3.3V*%
X145600000Y-98100000D02*
X145550768Y-98100000D01*
X148497000Y-91947000D02*
X149350000Y-92800000D01*
X153050000Y-93860000D02*
X151000000Y-93860000D01*
X151000000Y-93860000D02*
X149790000Y-93860000D01*
X149350000Y-94300000D02*
X149350000Y-95450000D01*
X147318994Y-91947000D02*
X148497000Y-91947000D01*
X149350000Y-95450000D02*
X149600000Y-95700000D01*
X149790000Y-93860000D02*
X149350000Y-94300000D01*
X145600000Y-95100000D02*
X145600000Y-93665994D01*
X145550768Y-98100000D02*
X144800000Y-97349232D01*
X149350000Y-92800000D02*
X149350000Y-94300000D01*
X144800000Y-97349232D02*
X144800000Y-95800000D01*
X145600000Y-93665994D02*
X147318994Y-91947000D01*
X145600000Y-99100000D02*
X145600000Y-98100000D01*
X145500000Y-95100000D02*
X145600000Y-95100000D01*
X144800000Y-95800000D02*
X145500000Y-95100000D01*
%TO.N,/buck/sw*%
X153050000Y-97960000D02*
X150858240Y-97960000D01*
X150858240Y-97960000D02*
X150098240Y-97200000D01*
D20*
%TO.N,/buck/EN*%
X146720000Y-97200000D02*
X146620000Y-97100000D01*
X146600000Y-96100000D02*
X146600000Y-97080000D01*
X148175000Y-97200000D02*
X146720000Y-97200000D01*
X146600000Y-97080000D02*
X146620000Y-97100000D01*
%TO.N,/buck/PG*%
X148175000Y-96655000D02*
X146620000Y-95100000D01*
X148175000Y-96700000D02*
X148175000Y-96655000D01*
%TO.N,Net-(U7-FB)*%
X146600000Y-99100000D02*
X145600000Y-100100000D01*
X146620000Y-99100000D02*
X146600000Y-99100000D01*
X147020000Y-97700000D02*
X146620000Y-98100000D01*
X146620000Y-98100000D02*
X146620000Y-99100000D01*
X148175000Y-97700000D02*
X147020000Y-97700000D01*
%TD*%
%TA.AperFunction,Conductor*%
%TO.N,GND*%
G36*
X156343039Y-90220185D02*
G01*
X156388794Y-90272989D01*
X156400000Y-90324500D01*
X156400000Y-91870358D01*
X156399290Y-91883613D01*
X156392000Y-91951418D01*
X156392000Y-93048581D01*
X156399290Y-93116388D01*
X156400000Y-93129643D01*
X156400000Y-93867931D01*
X156398242Y-93883023D01*
X156398840Y-93883088D01*
X156391500Y-93951345D01*
X156391500Y-95048654D01*
X156398840Y-95116914D01*
X156398240Y-95116978D01*
X156400000Y-95132069D01*
X156400000Y-95867931D01*
X156398242Y-95883023D01*
X156398840Y-95883088D01*
X156391500Y-95951345D01*
X156391500Y-97048654D01*
X156398840Y-97116914D01*
X156398240Y-97116978D01*
X156400000Y-97132069D01*
X156400000Y-97867931D01*
X156398242Y-97883023D01*
X156398840Y-97883088D01*
X156391500Y-97951345D01*
X156391500Y-99048654D01*
X156398840Y-99116914D01*
X156398240Y-99116978D01*
X156400000Y-99132069D01*
X156400000Y-99867931D01*
X156398242Y-99883023D01*
X156398840Y-99883088D01*
X156391500Y-99951345D01*
X156391500Y-101048654D01*
X156398840Y-101116914D01*
X156398240Y-101116978D01*
X156400000Y-101132069D01*
X156400000Y-102675500D01*
X156380315Y-102742539D01*
X156327511Y-102788294D01*
X156276000Y-102799500D01*
X144624000Y-102799500D01*
X144556961Y-102779815D01*
X144511206Y-102727011D01*
X144500000Y-102675500D01*
X144500000Y-101798322D01*
X148000001Y-101798322D01*
X148010144Y-101897607D01*
X148063452Y-102058481D01*
X148063457Y-102058492D01*
X148152424Y-102202728D01*
X148152427Y-102202732D01*
X148272267Y-102322572D01*
X148272271Y-102322575D01*
X148416507Y-102411542D01*
X148416518Y-102411547D01*
X148577393Y-102464855D01*
X148676683Y-102474999D01*
X148700000Y-102474998D01*
X148700000Y-101750000D01*
X148000001Y-101750000D01*
X148000001Y-101798322D01*
X144500000Y-101798322D01*
X144500000Y-101355454D01*
X144512683Y-101300822D01*
X144517785Y-101290424D01*
X144550889Y-101246204D01*
X144567497Y-101201677D01*
X148000000Y-101201677D01*
X148000000Y-101250000D01*
X148700000Y-101250000D01*
X148700000Y-100250000D01*
X148000001Y-100250000D01*
X148000001Y-100298322D01*
X148010144Y-100397607D01*
X148063452Y-100558481D01*
X148063457Y-100558492D01*
X148141429Y-100684903D01*
X148159870Y-100752295D01*
X148141429Y-100815097D01*
X148063457Y-100941507D01*
X148063452Y-100941518D01*
X148010144Y-101102393D01*
X148000000Y-101201677D01*
X144567497Y-101201677D01*
X144601989Y-101109201D01*
X144605591Y-101075692D01*
X144608499Y-101048654D01*
X144608500Y-101048637D01*
X144608500Y-100514702D01*
X144628185Y-100447663D01*
X144680989Y-100401908D01*
X144750147Y-100391964D01*
X144813703Y-100420989D01*
X144851477Y-100479767D01*
X144869731Y-100542596D01*
X144881269Y-100562105D01*
X144952492Y-100682538D01*
X144952498Y-100682546D01*
X145067453Y-100797501D01*
X145067457Y-100797504D01*
X145067459Y-100797506D01*
X145207404Y-100880269D01*
X145259447Y-100895389D01*
X145363526Y-100925627D01*
X145363528Y-100925627D01*
X145363534Y-100925629D01*
X145400011Y-100928500D01*
X145799988Y-100928499D01*
X145836466Y-100925629D01*
X145992596Y-100880269D01*
X146055227Y-100843228D01*
X146122951Y-100826045D01*
X146181470Y-100843228D01*
X146230805Y-100872404D01*
X146370000Y-100912844D01*
X146370000Y-100912843D01*
X146870000Y-100912843D01*
X147009194Y-100872404D01*
X147147285Y-100790738D01*
X147147294Y-100790731D01*
X147260731Y-100677294D01*
X147260738Y-100677285D01*
X147342406Y-100539191D01*
X147342407Y-100539188D01*
X147387166Y-100385128D01*
X147387167Y-100385122D01*
X147389931Y-100350000D01*
X146870000Y-100350000D01*
X146870000Y-100912843D01*
X146370000Y-100912843D01*
X146370000Y-100423488D01*
X146370286Y-100415065D01*
X146371193Y-100401732D01*
X146375629Y-100386466D01*
X146378500Y-100349989D01*
X146378499Y-100233410D01*
X146398183Y-100166372D01*
X146414813Y-100145734D01*
X146424235Y-100136312D01*
X146485558Y-100102832D01*
X146511910Y-100100000D01*
X146620000Y-100100000D01*
X146620000Y-100052499D01*
X146639685Y-99985460D01*
X146692489Y-99939705D01*
X146744000Y-99928499D01*
X146819978Y-99928499D01*
X146819988Y-99928499D01*
X146856466Y-99925629D01*
X147012596Y-99880269D01*
X147034580Y-99867267D01*
X147097700Y-99850000D01*
X147389931Y-99850000D01*
X147387167Y-99814877D01*
X147387166Y-99814871D01*
X147342408Y-99660814D01*
X147341282Y-99658211D01*
X147341008Y-99655993D01*
X147340230Y-99653315D01*
X147340662Y-99653189D01*
X147332721Y-99588868D01*
X147348355Y-99545832D01*
X147350269Y-99542596D01*
X147395629Y-99386466D01*
X147398500Y-99349989D01*
X147398499Y-98950000D01*
X147961210Y-98950000D01*
X147962854Y-98970910D01*
X148007968Y-99126195D01*
X148092201Y-99268624D01*
X148109384Y-99336348D01*
X148091008Y-99396841D01*
X148063457Y-99441509D01*
X148063452Y-99441518D01*
X148010144Y-99602393D01*
X148000000Y-99701677D01*
X148000000Y-99750000D01*
X148700000Y-99750000D01*
X148700000Y-99640000D01*
X148614000Y-99640000D01*
X148546961Y-99620315D01*
X148501206Y-99567511D01*
X148490000Y-99516000D01*
X148490000Y-98950000D01*
X147961210Y-98950000D01*
X147398499Y-98950000D01*
X147398499Y-98850012D01*
X147395629Y-98813534D01*
X147350269Y-98657404D01*
X147350267Y-98657402D01*
X147347171Y-98650245D01*
X147350070Y-98648990D01*
X147336466Y-98595432D01*
X147341759Y-98563882D01*
X147346087Y-98549667D01*
X147350269Y-98542596D01*
X147392521Y-98397160D01*
X147392759Y-98396382D01*
X147411509Y-98367835D01*
X147429912Y-98339019D01*
X147430663Y-98338673D01*
X147431117Y-98337983D01*
X147462333Y-98324100D01*
X147493384Y-98309813D01*
X147494672Y-98309719D01*
X147494958Y-98309592D01*
X147495425Y-98309664D01*
X147511382Y-98308500D01*
X147600717Y-98308500D01*
X147648169Y-98317938D01*
X147769413Y-98368160D01*
X147857207Y-98379718D01*
X147921104Y-98407984D01*
X147932078Y-98418486D01*
X147961209Y-98450000D01*
X148616000Y-98450000D01*
X148683039Y-98469685D01*
X148728794Y-98522489D01*
X148740000Y-98574000D01*
X148740000Y-98700000D01*
X148787500Y-98700000D01*
X148854539Y-98719685D01*
X148900294Y-98772489D01*
X148911500Y-98824000D01*
X148911500Y-98935490D01*
X148914393Y-98972249D01*
X148914395Y-98972260D01*
X148936576Y-99048605D01*
X148941500Y-99083200D01*
X148941500Y-99274709D01*
X148970647Y-99421239D01*
X148970649Y-99421247D01*
X149027509Y-99558520D01*
X149027826Y-99559284D01*
X149068605Y-99620315D01*
X149110835Y-99683517D01*
X149110836Y-99683518D01*
X149163680Y-99736361D01*
X149197166Y-99797684D01*
X149200000Y-99824043D01*
X149200000Y-102474999D01*
X149223308Y-102474999D01*
X149223322Y-102474998D01*
X149322607Y-102464855D01*
X149483481Y-102411547D01*
X149483492Y-102411542D01*
X149627728Y-102322575D01*
X149627732Y-102322572D01*
X149631309Y-102318996D01*
X149692632Y-102285511D01*
X149762324Y-102290495D01*
X149806671Y-102318996D01*
X149816959Y-102329284D01*
X149816963Y-102329287D01*
X149962890Y-102419297D01*
X149962893Y-102419298D01*
X149962899Y-102419302D01*
X150125664Y-102473236D01*
X150226128Y-102483500D01*
X150226133Y-102483500D01*
X150773867Y-102483500D01*
X150773872Y-102483500D01*
X150874336Y-102473236D01*
X151037101Y-102419302D01*
X151183040Y-102329285D01*
X151304285Y-102208040D01*
X151394302Y-102062101D01*
X151448236Y-101899336D01*
X151458500Y-101798872D01*
X151458500Y-101201128D01*
X151448236Y-101100664D01*
X151394302Y-100937899D01*
X151318555Y-100815095D01*
X151300115Y-100747706D01*
X151318556Y-100684903D01*
X151394302Y-100562101D01*
X151448236Y-100399336D01*
X151458500Y-100298872D01*
X151458500Y-99701128D01*
X151448236Y-99600664D01*
X151394302Y-99437899D01*
X151370288Y-99398967D01*
X151351848Y-99331577D01*
X151372770Y-99264913D01*
X151426411Y-99220143D01*
X151495742Y-99211481D01*
X151558750Y-99241677D01*
X151563508Y-99246190D01*
X151576348Y-99259030D01*
X151727262Y-99352115D01*
X151895574Y-99407887D01*
X151999455Y-99418500D01*
X154100544Y-99418499D01*
X154204426Y-99407887D01*
X154372738Y-99352115D01*
X154523652Y-99259030D01*
X154649030Y-99133652D01*
X154742115Y-98982738D01*
X154797887Y-98814426D01*
X154808500Y-98710545D01*
X154808499Y-97209456D01*
X154797887Y-97105574D01*
X154742115Y-96937262D01*
X154649030Y-96786348D01*
X154523652Y-96660970D01*
X154411664Y-96591895D01*
X154372740Y-96567886D01*
X154372735Y-96567884D01*
X154204427Y-96512113D01*
X154100545Y-96501500D01*
X151999462Y-96501500D01*
X151999446Y-96501501D01*
X151895572Y-96512113D01*
X151727264Y-96567884D01*
X151727259Y-96567886D01*
X151576346Y-96660971D01*
X151450971Y-96786346D01*
X151357886Y-96937259D01*
X151357884Y-96937264D01*
X151309192Y-97084207D01*
X151269419Y-97141652D01*
X151204903Y-97168475D01*
X151136127Y-97156160D01*
X151103805Y-97132884D01*
X150581758Y-96610836D01*
X150581754Y-96610833D01*
X150475620Y-96539916D01*
X150430815Y-96486304D01*
X150425385Y-96466740D01*
X150424483Y-96466982D01*
X150422380Y-96459135D01*
X150363182Y-96316217D01*
X150338714Y-96284331D01*
X150313519Y-96219162D01*
X150327556Y-96150717D01*
X150330339Y-96145753D01*
X150339894Y-96129597D01*
X150385606Y-95972254D01*
X150388500Y-95935484D01*
X150388500Y-95464516D01*
X150385606Y-95427746D01*
X150339894Y-95270403D01*
X150256488Y-95129371D01*
X150256486Y-95129369D01*
X150256483Y-95129365D01*
X150216317Y-95089199D01*
X150182832Y-95027876D01*
X150187816Y-94958184D01*
X150198455Y-94936428D01*
X150244302Y-94862101D01*
X150280171Y-94753851D01*
X150296858Y-94703496D01*
X150336631Y-94646051D01*
X150401146Y-94619228D01*
X150414564Y-94618500D01*
X150925294Y-94618500D01*
X151074706Y-94618500D01*
X151181313Y-94618500D01*
X151248352Y-94638185D01*
X151294107Y-94690989D01*
X151299762Y-94708072D01*
X151299983Y-94707999D01*
X151357884Y-94882735D01*
X151357886Y-94882740D01*
X151393142Y-94939898D01*
X151450970Y-95033652D01*
X151576348Y-95159030D01*
X151727262Y-95252115D01*
X151895574Y-95307887D01*
X151999455Y-95318500D01*
X154100544Y-95318499D01*
X154204426Y-95307887D01*
X154372738Y-95252115D01*
X154523652Y-95159030D01*
X154649030Y-95033652D01*
X154742115Y-94882738D01*
X154797887Y-94714426D01*
X154808500Y-94610545D01*
X154808499Y-93109456D01*
X154797887Y-93005574D01*
X154742115Y-92837262D01*
X154649030Y-92686348D01*
X154523652Y-92560970D01*
X154372738Y-92467885D01*
X154372735Y-92467884D01*
X154204427Y-92412113D01*
X154100545Y-92401500D01*
X151999462Y-92401500D01*
X151999446Y-92401501D01*
X151895572Y-92412113D01*
X151727264Y-92467884D01*
X151727259Y-92467886D01*
X151576346Y-92560971D01*
X151450971Y-92686346D01*
X151357886Y-92837259D01*
X151357884Y-92837264D01*
X151299983Y-93012001D01*
X151298248Y-93011426D01*
X151269283Y-93064891D01*
X151208071Y-93098578D01*
X151181313Y-93101500D01*
X150432500Y-93101500D01*
X150365461Y-93081815D01*
X150319706Y-93029011D01*
X150308500Y-92977500D01*
X150308500Y-92501133D01*
X150308499Y-92501120D01*
X150298236Y-92400664D01*
X150244302Y-92237899D01*
X150244298Y-92237893D01*
X150244297Y-92237890D01*
X150154287Y-92091963D01*
X150154284Y-92091959D01*
X150033040Y-91970715D01*
X150033036Y-91970712D01*
X149887109Y-91880702D01*
X149887103Y-91880699D01*
X149887101Y-91880698D01*
X149724336Y-91826764D01*
X149623879Y-91816500D01*
X149623872Y-91816500D01*
X149490543Y-91816500D01*
X149423504Y-91796815D01*
X149402862Y-91780181D01*
X148980518Y-91357836D01*
X148980517Y-91357835D01*
X148918399Y-91316330D01*
X148856284Y-91274826D01*
X148718247Y-91217649D01*
X148718239Y-91217647D01*
X148644976Y-91203074D01*
X148571709Y-91188500D01*
X148571706Y-91188500D01*
X147244288Y-91188500D01*
X147244286Y-91188500D01*
X147097753Y-91217647D01*
X147097743Y-91217650D01*
X146959713Y-91274823D01*
X146835476Y-91357835D01*
X145010835Y-93182476D01*
X144951797Y-93270835D01*
X144951796Y-93270836D01*
X144927830Y-93306701D01*
X144927822Y-93306716D01*
X144870650Y-93444743D01*
X144870647Y-93444753D01*
X144841500Y-93591285D01*
X144841500Y-93845665D01*
X144839068Y-93853944D01*
X144840355Y-93862480D01*
X144829372Y-93886964D01*
X144821815Y-93912704D01*
X144815293Y-93918354D01*
X144811761Y-93926231D01*
X144789284Y-93940892D01*
X144769011Y-93958459D01*
X144760469Y-93959687D01*
X144753240Y-93964403D01*
X144726408Y-93964584D01*
X144699853Y-93968403D01*
X144692002Y-93964817D01*
X144683372Y-93964876D01*
X144660703Y-93950523D01*
X144636297Y-93939378D01*
X144630086Y-93931139D01*
X144624339Y-93927501D01*
X144612822Y-93908240D01*
X144605057Y-93897939D01*
X144602064Y-93891502D01*
X144601989Y-93890799D01*
X144550889Y-93753796D01*
X144516998Y-93708523D01*
X144511557Y-93696819D01*
X144508196Y-93674520D01*
X144500316Y-93653392D01*
X144500000Y-93644545D01*
X144500000Y-93354621D01*
X144519685Y-93287582D01*
X144524733Y-93280310D01*
X144550444Y-93245964D01*
X144601493Y-93109097D01*
X144607999Y-93048581D01*
X144608000Y-93048580D01*
X144608000Y-91951420D01*
X144607999Y-91951418D01*
X144601493Y-91890902D01*
X144550446Y-91754038D01*
X144550443Y-91754033D01*
X144524733Y-91719688D01*
X144500316Y-91654223D01*
X144500000Y-91645378D01*
X144500000Y-90324500D01*
X144519685Y-90257461D01*
X144572489Y-90211706D01*
X144624000Y-90200500D01*
X156276000Y-90200500D01*
X156343039Y-90220185D01*
G37*
%TD.AperFunction*%
%TA.AperFunction,Conductor*%
G36*
X147993039Y-92819685D02*
G01*
X148038794Y-92872489D01*
X148050000Y-92924000D01*
X148050000Y-94176000D01*
X148030315Y-94243039D01*
X147977511Y-94288794D01*
X147926000Y-94300000D01*
X147674000Y-94300000D01*
X147606961Y-94280315D01*
X147561206Y-94227511D01*
X147550000Y-94176000D01*
X147550000Y-92924000D01*
X147569685Y-92856961D01*
X147622489Y-92811206D01*
X147674000Y-92800000D01*
X147926000Y-92800000D01*
X147993039Y-92819685D01*
G37*
%TD.AperFunction*%
%TD*%
M02*
