%TF.GenerationSoftware,KiCad,Pcbnew,9.0.1*%
%TF.CreationDate,2025-04-30T15:54:22+02:00*%
%TF.ProjectId,board,626f6172-642e-46b6-9963-61645f706362,rev?*%
%TF.SameCoordinates,Original*%
%TF.FileFunction,Soldermask,Top*%
%TF.FilePolarity,Negative*%
%FSLAX46Y46*%
G04 Gerber Fmt 4.6, Leading zero omitted, Abs format (unit mm)*
G04 Created by KiCad (PCBNEW 9.0.1) date 2025-04-30 15:54:22*
%MOMM*%
%LPD*%
G01*
G04 APERTURE LIST*
G04 Aperture macros list*
%AMRoundRect*
0 Rectangle with rounded corners*
0 $1 Rounding radius*
0 $2 $3 $4 $5 $6 $7 $8 $9 X,Y pos of 4 corners*
0 Add a 4 corners polygon primitive as box body*
4,1,4,$2,$3,$4,$5,$6,$7,$8,$9,$2,$3,0*
0 Add four circle primitives for the rounded corners*
1,1,$1+$1,$2,$3*
1,1,$1+$1,$4,$5*
1,1,$1+$1,$6,$7*
1,1,$1+$1,$8,$9*
0 Add four rect primitives between the rounded corners*
20,1,$1+$1,$2,$3,$4,$5,0*
20,1,$1+$1,$4,$5,$6,$7,0*
20,1,$1+$1,$6,$7,$8,$9,0*
20,1,$1+$1,$8,$9,$2,$3,0*%
G04 Aperture macros list end*
%ADD10RoundRect,0.250000X1.000000X-0.700000X1.000000X0.700000X-1.000000X0.700000X-1.000000X-0.700000X0*%
%ADD11RoundRect,0.140000X0.140000X0.170000X-0.140000X0.170000X-0.140000X-0.170000X0.140000X-0.170000X0*%
%ADD12RoundRect,0.135000X0.135000X0.185000X-0.135000X0.185000X-0.135000X-0.185000X0.135000X-0.185000X0*%
%ADD13RoundRect,0.225000X0.225000X0.250000X-0.225000X0.250000X-0.225000X-0.250000X0.225000X-0.250000X0*%
%ADD14RoundRect,0.135000X-0.135000X-0.185000X0.135000X-0.185000X0.135000X0.185000X-0.135000X0.185000X0*%
%ADD15R,3.500000X1.000000*%
%ADD16RoundRect,0.087500X0.250000X0.087500X-0.250000X0.087500X-0.250000X-0.087500X0.250000X-0.087500X0*%
G04 APERTURE END LIST*
D10*
%TO.C,L1*%
X153050000Y-97960000D03*
X153050000Y-93860000D03*
%TD*%
D11*
%TO.C,C58*%
X149600000Y-95700000D03*
X148640000Y-95700000D03*
%TD*%
D12*
%TO.C,R14*%
X146620000Y-99100000D03*
X145600000Y-99100000D03*
%TD*%
D13*
%TO.C,C3*%
X150500000Y-100000000D03*
X148950000Y-100000000D03*
%TD*%
%TO.C,C6*%
X149350000Y-94300000D03*
X147800000Y-94300000D03*
%TD*%
D14*
%TO.C,R2*%
X145580000Y-96100000D03*
X146600000Y-96100000D03*
%TD*%
D12*
%TO.C,R13*%
X146620000Y-98100000D03*
X145600000Y-98100000D03*
%TD*%
D15*
%TO.C,J1*%
X142350000Y-92500000D03*
X142350000Y-94500000D03*
X142350000Y-96500000D03*
X142350000Y-98500000D03*
X142350000Y-100500000D03*
%TD*%
D12*
%TO.C,R57*%
X146620000Y-100100000D03*
X145600000Y-100100000D03*
%TD*%
D13*
%TO.C,C2*%
X150500000Y-101500000D03*
X148950000Y-101500000D03*
%TD*%
D15*
%TO.C,J2*%
X158650000Y-92500000D03*
X158650000Y-94500000D03*
X158650000Y-96500000D03*
X158650000Y-98500000D03*
X158650000Y-100500000D03*
%TD*%
D16*
%TO.C,U7*%
X149600000Y-97700000D03*
X149600000Y-97200000D03*
X149600000Y-96700000D03*
X148175000Y-96700000D03*
X148175000Y-97200000D03*
X148175000Y-97700000D03*
%TD*%
D13*
%TO.C,C5*%
X149350000Y-92800000D03*
X147800000Y-92800000D03*
%TD*%
D12*
%TO.C,R12*%
X146620000Y-95100000D03*
X145600000Y-95100000D03*
%TD*%
%TO.C,R1*%
X146620000Y-97100000D03*
X145600000Y-97100000D03*
%TD*%
D11*
%TO.C,C4*%
X149700000Y-98700000D03*
X148740000Y-98700000D03*
%TD*%
M02*
