%TF.GenerationSoftware,KiCad,Pcbnew,9.0.1*%
%TF.CreationDate,2025-04-30T15:54:22+02:00*%
%TF.ProjectId,board,626f6172-642e-46b6-9963-61645f706362,rev?*%
%TF.SameCoordinates,Original*%
%TF.FileFunction,Legend,Top*%
%TF.FilePolarity,Positive*%
%FSLAX46Y46*%
G04 Gerber Fmt 4.6, Leading zero omitted, Abs format (unit mm)*
G04 Created by KiCad (PCBNEW 9.0.1) date 2025-04-30 15:54:22*
%MOMM*%
%LPD*%
G01*
G04 APERTURE LIST*
G04 Aperture macros list*
%AMRoundRect*
0 Rectangle with rounded corners*
0 $1 Rounding radius*
0 $2 $3 $4 $5 $6 $7 $8 $9 X,Y pos of 4 corners*
0 Add a 4 corners polygon primitive as box body*
4,1,4,$2,$3,$4,$5,$6,$7,$8,$9,$2,$3,0*
0 Add four circle primitives for the rounded corners*
1,1,$1+$1,$2,$3*
1,1,$1+$1,$4,$5*
1,1,$1+$1,$6,$7*
1,1,$1+$1,$8,$9*
0 Add four rect primitives between the rounded corners*
20,1,$1+$1,$2,$3,$4,$5,0*
20,1,$1+$1,$4,$5,$6,$7,0*
20,1,$1+$1,$6,$7,$8,$9,0*
20,1,$1+$1,$8,$9,$2,$3,0*%
G04 Aperture macros list end*
%ADD10C,0.150000*%
%ADD11C,0.100000*%
%ADD12C,0.120000*%
%ADD13C,0.153000*%
%ADD14RoundRect,0.250000X1.000000X-0.700000X1.000000X0.700000X-1.000000X0.700000X-1.000000X-0.700000X0*%
%ADD15RoundRect,0.140000X0.140000X0.170000X-0.140000X0.170000X-0.140000X-0.170000X0.140000X-0.170000X0*%
%ADD16RoundRect,0.135000X0.135000X0.185000X-0.135000X0.185000X-0.135000X-0.185000X0.135000X-0.185000X0*%
%ADD17RoundRect,0.225000X0.225000X0.250000X-0.225000X0.250000X-0.225000X-0.250000X0.225000X-0.250000X0*%
%ADD18RoundRect,0.135000X-0.135000X-0.185000X0.135000X-0.185000X0.135000X0.185000X-0.135000X0.185000X0*%
%ADD19R,3.500000X1.000000*%
%ADD20RoundRect,0.087500X0.250000X0.087500X-0.250000X0.087500X-0.250000X-0.087500X0.250000X-0.087500X0*%
G04 APERTURE END LIST*
D10*
X140979636Y-102369819D02*
X140884398Y-102322200D01*
X140884398Y-102322200D02*
X140836779Y-102274580D01*
X140836779Y-102274580D02*
X140789160Y-102179342D01*
X140789160Y-102179342D02*
X140789160Y-101893628D01*
X140789160Y-101893628D02*
X140836779Y-101798390D01*
X140836779Y-101798390D02*
X140884398Y-101750771D01*
X140884398Y-101750771D02*
X140979636Y-101703152D01*
X140979636Y-101703152D02*
X141122493Y-101703152D01*
X141122493Y-101703152D02*
X141217731Y-101750771D01*
X141217731Y-101750771D02*
X141265350Y-101798390D01*
X141265350Y-101798390D02*
X141312969Y-101893628D01*
X141312969Y-101893628D02*
X141312969Y-102179342D01*
X141312969Y-102179342D02*
X141265350Y-102274580D01*
X141265350Y-102274580D02*
X141217731Y-102322200D01*
X141217731Y-102322200D02*
X141122493Y-102369819D01*
X141122493Y-102369819D02*
X140979636Y-102369819D01*
X141693922Y-102322200D02*
X141789160Y-102369819D01*
X141789160Y-102369819D02*
X141979636Y-102369819D01*
X141979636Y-102369819D02*
X142074874Y-102322200D01*
X142074874Y-102322200D02*
X142122493Y-102226961D01*
X142122493Y-102226961D02*
X142122493Y-102179342D01*
X142122493Y-102179342D02*
X142074874Y-102084104D01*
X142074874Y-102084104D02*
X141979636Y-102036485D01*
X141979636Y-102036485D02*
X141836779Y-102036485D01*
X141836779Y-102036485D02*
X141741541Y-101988866D01*
X141741541Y-101988866D02*
X141693922Y-101893628D01*
X141693922Y-101893628D02*
X141693922Y-101846009D01*
X141693922Y-101846009D02*
X141741541Y-101750771D01*
X141741541Y-101750771D02*
X141836779Y-101703152D01*
X141836779Y-101703152D02*
X141979636Y-101703152D01*
X141979636Y-101703152D02*
X142074874Y-101750771D01*
X142408208Y-101703152D02*
X142789160Y-101703152D01*
X142551065Y-102369819D02*
X142551065Y-101512676D01*
X142551065Y-101512676D02*
X142598684Y-101417438D01*
X142598684Y-101417438D02*
X142693922Y-101369819D01*
X142693922Y-101369819D02*
X142789160Y-101369819D01*
X143122494Y-102274580D02*
X143170113Y-102322200D01*
X143170113Y-102322200D02*
X143122494Y-102369819D01*
X143122494Y-102369819D02*
X143074875Y-102322200D01*
X143074875Y-102322200D02*
X143122494Y-102274580D01*
X143122494Y-102274580D02*
X143122494Y-102369819D01*
X143789160Y-101369819D02*
X143884398Y-101369819D01*
X143884398Y-101369819D02*
X143979636Y-101417438D01*
X143979636Y-101417438D02*
X144027255Y-101465057D01*
X144027255Y-101465057D02*
X144074874Y-101560295D01*
X144074874Y-101560295D02*
X144122493Y-101750771D01*
X144122493Y-101750771D02*
X144122493Y-101988866D01*
X144122493Y-101988866D02*
X144074874Y-102179342D01*
X144074874Y-102179342D02*
X144027255Y-102274580D01*
X144027255Y-102274580D02*
X143979636Y-102322200D01*
X143979636Y-102322200D02*
X143884398Y-102369819D01*
X143884398Y-102369819D02*
X143789160Y-102369819D01*
X143789160Y-102369819D02*
X143693922Y-102322200D01*
X143693922Y-102322200D02*
X143646303Y-102274580D01*
X143646303Y-102274580D02*
X143598684Y-102179342D01*
X143598684Y-102179342D02*
X143551065Y-101988866D01*
X143551065Y-101988866D02*
X143551065Y-101750771D01*
X143551065Y-101750771D02*
X143598684Y-101560295D01*
X143598684Y-101560295D02*
X143646303Y-101465057D01*
X143646303Y-101465057D02*
X143693922Y-101417438D01*
X143693922Y-101417438D02*
X143789160Y-101369819D01*
X144741541Y-101369819D02*
X144836779Y-101369819D01*
X144836779Y-101369819D02*
X144932017Y-101417438D01*
X144932017Y-101417438D02*
X144979636Y-101465057D01*
X144979636Y-101465057D02*
X145027255Y-101560295D01*
X145027255Y-101560295D02*
X145074874Y-101750771D01*
X145074874Y-101750771D02*
X145074874Y-101988866D01*
X145074874Y-101988866D02*
X145027255Y-102179342D01*
X145027255Y-102179342D02*
X144979636Y-102274580D01*
X144979636Y-102274580D02*
X144932017Y-102322200D01*
X144932017Y-102322200D02*
X144836779Y-102369819D01*
X144836779Y-102369819D02*
X144741541Y-102369819D01*
X144741541Y-102369819D02*
X144646303Y-102322200D01*
X144646303Y-102322200D02*
X144598684Y-102274580D01*
X144598684Y-102274580D02*
X144551065Y-102179342D01*
X144551065Y-102179342D02*
X144503446Y-101988866D01*
X144503446Y-101988866D02*
X144503446Y-101750771D01*
X144503446Y-101750771D02*
X144551065Y-101560295D01*
X144551065Y-101560295D02*
X144598684Y-101465057D01*
X144598684Y-101465057D02*
X144646303Y-101417438D01*
X144646303Y-101417438D02*
X144741541Y-101369819D01*
X145693922Y-101369819D02*
X145789160Y-101369819D01*
X145789160Y-101369819D02*
X145884398Y-101417438D01*
X145884398Y-101417438D02*
X145932017Y-101465057D01*
X145932017Y-101465057D02*
X145979636Y-101560295D01*
X145979636Y-101560295D02*
X146027255Y-101750771D01*
X146027255Y-101750771D02*
X146027255Y-101988866D01*
X146027255Y-101988866D02*
X145979636Y-102179342D01*
X145979636Y-102179342D02*
X145932017Y-102274580D01*
X145932017Y-102274580D02*
X145884398Y-102322200D01*
X145884398Y-102322200D02*
X145789160Y-102369819D01*
X145789160Y-102369819D02*
X145693922Y-102369819D01*
X145693922Y-102369819D02*
X145598684Y-102322200D01*
X145598684Y-102322200D02*
X145551065Y-102274580D01*
X145551065Y-102274580D02*
X145503446Y-102179342D01*
X145503446Y-102179342D02*
X145455827Y-101988866D01*
X145455827Y-101988866D02*
X145455827Y-101750771D01*
X145455827Y-101750771D02*
X145503446Y-101560295D01*
X145503446Y-101560295D02*
X145551065Y-101465057D01*
X145551065Y-101465057D02*
X145598684Y-101417438D01*
X145598684Y-101417438D02*
X145693922Y-101369819D01*
X145679636Y-91269819D02*
X145584398Y-91222200D01*
X145584398Y-91222200D02*
X145536779Y-91174580D01*
X145536779Y-91174580D02*
X145489160Y-91079342D01*
X145489160Y-91079342D02*
X145489160Y-90793628D01*
X145489160Y-90793628D02*
X145536779Y-90698390D01*
X145536779Y-90698390D02*
X145584398Y-90650771D01*
X145584398Y-90650771D02*
X145679636Y-90603152D01*
X145679636Y-90603152D02*
X145822493Y-90603152D01*
X145822493Y-90603152D02*
X145917731Y-90650771D01*
X145917731Y-90650771D02*
X145965350Y-90698390D01*
X145965350Y-90698390D02*
X146012969Y-90793628D01*
X146012969Y-90793628D02*
X146012969Y-91079342D01*
X146012969Y-91079342D02*
X145965350Y-91174580D01*
X145965350Y-91174580D02*
X145917731Y-91222200D01*
X145917731Y-91222200D02*
X145822493Y-91269819D01*
X145822493Y-91269819D02*
X145679636Y-91269819D01*
X146393922Y-91222200D02*
X146489160Y-91269819D01*
X146489160Y-91269819D02*
X146679636Y-91269819D01*
X146679636Y-91269819D02*
X146774874Y-91222200D01*
X146774874Y-91222200D02*
X146822493Y-91126961D01*
X146822493Y-91126961D02*
X146822493Y-91079342D01*
X146822493Y-91079342D02*
X146774874Y-90984104D01*
X146774874Y-90984104D02*
X146679636Y-90936485D01*
X146679636Y-90936485D02*
X146536779Y-90936485D01*
X146536779Y-90936485D02*
X146441541Y-90888866D01*
X146441541Y-90888866D02*
X146393922Y-90793628D01*
X146393922Y-90793628D02*
X146393922Y-90746009D01*
X146393922Y-90746009D02*
X146441541Y-90650771D01*
X146441541Y-90650771D02*
X146536779Y-90603152D01*
X146536779Y-90603152D02*
X146679636Y-90603152D01*
X146679636Y-90603152D02*
X146774874Y-90650771D01*
X147108208Y-90603152D02*
X147489160Y-90603152D01*
X147251065Y-91269819D02*
X147251065Y-90412676D01*
X147251065Y-90412676D02*
X147298684Y-90317438D01*
X147298684Y-90317438D02*
X147393922Y-90269819D01*
X147393922Y-90269819D02*
X147489160Y-90269819D01*
X147822494Y-91174580D02*
X147870113Y-91222200D01*
X147870113Y-91222200D02*
X147822494Y-91269819D01*
X147822494Y-91269819D02*
X147774875Y-91222200D01*
X147774875Y-91222200D02*
X147822494Y-91174580D01*
X147822494Y-91174580D02*
X147822494Y-91269819D01*
X148298684Y-91269819D02*
X148298684Y-90269819D01*
X148298684Y-90650771D02*
X148393922Y-90603152D01*
X148393922Y-90603152D02*
X148584398Y-90603152D01*
X148584398Y-90603152D02*
X148679636Y-90650771D01*
X148679636Y-90650771D02*
X148727255Y-90698390D01*
X148727255Y-90698390D02*
X148774874Y-90793628D01*
X148774874Y-90793628D02*
X148774874Y-91079342D01*
X148774874Y-91079342D02*
X148727255Y-91174580D01*
X148727255Y-91174580D02*
X148679636Y-91222200D01*
X148679636Y-91222200D02*
X148584398Y-91269819D01*
X148584398Y-91269819D02*
X148393922Y-91269819D01*
X148393922Y-91269819D02*
X148298684Y-91222200D01*
X149727255Y-91269819D02*
X149155827Y-91269819D01*
X149441541Y-91269819D02*
X149441541Y-90269819D01*
X149441541Y-90269819D02*
X149346303Y-90412676D01*
X149346303Y-90412676D02*
X149251065Y-90507914D01*
X149251065Y-90507914D02*
X149155827Y-90555533D01*
X150584398Y-90269819D02*
X150393922Y-90269819D01*
X150393922Y-90269819D02*
X150298684Y-90317438D01*
X150298684Y-90317438D02*
X150251065Y-90365057D01*
X150251065Y-90365057D02*
X150155827Y-90507914D01*
X150155827Y-90507914D02*
X150108208Y-90698390D01*
X150108208Y-90698390D02*
X150108208Y-91079342D01*
X150108208Y-91079342D02*
X150155827Y-91174580D01*
X150155827Y-91174580D02*
X150203446Y-91222200D01*
X150203446Y-91222200D02*
X150298684Y-91269819D01*
X150298684Y-91269819D02*
X150489160Y-91269819D01*
X150489160Y-91269819D02*
X150584398Y-91222200D01*
X150584398Y-91222200D02*
X150632017Y-91174580D01*
X150632017Y-91174580D02*
X150679636Y-91079342D01*
X150679636Y-91079342D02*
X150679636Y-90841247D01*
X150679636Y-90841247D02*
X150632017Y-90746009D01*
X150632017Y-90746009D02*
X150584398Y-90698390D01*
X150584398Y-90698390D02*
X150489160Y-90650771D01*
X150489160Y-90650771D02*
X150298684Y-90650771D01*
X150298684Y-90650771D02*
X150203446Y-90698390D01*
X150203446Y-90698390D02*
X150155827Y-90746009D01*
X150155827Y-90746009D02*
X150108208Y-90841247D01*
X151155827Y-91269819D02*
X151346303Y-91269819D01*
X151346303Y-91269819D02*
X151441541Y-91222200D01*
X151441541Y-91222200D02*
X151489160Y-91174580D01*
X151489160Y-91174580D02*
X151584398Y-91031723D01*
X151584398Y-91031723D02*
X151632017Y-90841247D01*
X151632017Y-90841247D02*
X151632017Y-90460295D01*
X151632017Y-90460295D02*
X151584398Y-90365057D01*
X151584398Y-90365057D02*
X151536779Y-90317438D01*
X151536779Y-90317438D02*
X151441541Y-90269819D01*
X151441541Y-90269819D02*
X151251065Y-90269819D01*
X151251065Y-90269819D02*
X151155827Y-90317438D01*
X151155827Y-90317438D02*
X151108208Y-90365057D01*
X151108208Y-90365057D02*
X151060589Y-90460295D01*
X151060589Y-90460295D02*
X151060589Y-90698390D01*
X151060589Y-90698390D02*
X151108208Y-90793628D01*
X151108208Y-90793628D02*
X151155827Y-90841247D01*
X151155827Y-90841247D02*
X151251065Y-90888866D01*
X151251065Y-90888866D02*
X151441541Y-90888866D01*
X151441541Y-90888866D02*
X151536779Y-90841247D01*
X151536779Y-90841247D02*
X151584398Y-90793628D01*
X151584398Y-90793628D02*
X151632017Y-90698390D01*
X152060589Y-91174580D02*
X152108208Y-91222200D01*
X152108208Y-91222200D02*
X152060589Y-91269819D01*
X152060589Y-91269819D02*
X152012970Y-91222200D01*
X152012970Y-91222200D02*
X152060589Y-91174580D01*
X152060589Y-91174580D02*
X152060589Y-91269819D01*
X152441541Y-90603152D02*
X152679636Y-91269819D01*
X152679636Y-91269819D02*
X152917731Y-90603152D01*
X153822493Y-91269819D02*
X153251065Y-91269819D01*
X153536779Y-91269819D02*
X153536779Y-90269819D01*
X153536779Y-90269819D02*
X153441541Y-90412676D01*
X153441541Y-90412676D02*
X153346303Y-90507914D01*
X153346303Y-90507914D02*
X153251065Y-90555533D01*
X154251065Y-91174580D02*
X154298684Y-91222200D01*
X154298684Y-91222200D02*
X154251065Y-91269819D01*
X154251065Y-91269819D02*
X154203446Y-91222200D01*
X154203446Y-91222200D02*
X154251065Y-91174580D01*
X154251065Y-91174580D02*
X154251065Y-91269819D01*
X154917731Y-90269819D02*
X155012969Y-90269819D01*
X155012969Y-90269819D02*
X155108207Y-90317438D01*
X155108207Y-90317438D02*
X155155826Y-90365057D01*
X155155826Y-90365057D02*
X155203445Y-90460295D01*
X155203445Y-90460295D02*
X155251064Y-90650771D01*
X155251064Y-90650771D02*
X155251064Y-90888866D01*
X155251064Y-90888866D02*
X155203445Y-91079342D01*
X155203445Y-91079342D02*
X155155826Y-91174580D01*
X155155826Y-91174580D02*
X155108207Y-91222200D01*
X155108207Y-91222200D02*
X155012969Y-91269819D01*
X155012969Y-91269819D02*
X154917731Y-91269819D01*
X154917731Y-91269819D02*
X154822493Y-91222200D01*
X154822493Y-91222200D02*
X154774874Y-91174580D01*
X154774874Y-91174580D02*
X154727255Y-91079342D01*
X154727255Y-91079342D02*
X154679636Y-90888866D01*
X154679636Y-90888866D02*
X154679636Y-90650771D01*
X154679636Y-90650771D02*
X154727255Y-90460295D01*
X154727255Y-90460295D02*
X154774874Y-90365057D01*
X154774874Y-90365057D02*
X154822493Y-90317438D01*
X154822493Y-90317438D02*
X154917731Y-90269819D01*
X154979636Y-102369819D02*
X154884398Y-102322200D01*
X154884398Y-102322200D02*
X154836779Y-102274580D01*
X154836779Y-102274580D02*
X154789160Y-102179342D01*
X154789160Y-102179342D02*
X154789160Y-101893628D01*
X154789160Y-101893628D02*
X154836779Y-101798390D01*
X154836779Y-101798390D02*
X154884398Y-101750771D01*
X154884398Y-101750771D02*
X154979636Y-101703152D01*
X154979636Y-101703152D02*
X155122493Y-101703152D01*
X155122493Y-101703152D02*
X155217731Y-101750771D01*
X155217731Y-101750771D02*
X155265350Y-101798390D01*
X155265350Y-101798390D02*
X155312969Y-101893628D01*
X155312969Y-101893628D02*
X155312969Y-102179342D01*
X155312969Y-102179342D02*
X155265350Y-102274580D01*
X155265350Y-102274580D02*
X155217731Y-102322200D01*
X155217731Y-102322200D02*
X155122493Y-102369819D01*
X155122493Y-102369819D02*
X154979636Y-102369819D01*
X155693922Y-102322200D02*
X155789160Y-102369819D01*
X155789160Y-102369819D02*
X155979636Y-102369819D01*
X155979636Y-102369819D02*
X156074874Y-102322200D01*
X156074874Y-102322200D02*
X156122493Y-102226961D01*
X156122493Y-102226961D02*
X156122493Y-102179342D01*
X156122493Y-102179342D02*
X156074874Y-102084104D01*
X156074874Y-102084104D02*
X155979636Y-102036485D01*
X155979636Y-102036485D02*
X155836779Y-102036485D01*
X155836779Y-102036485D02*
X155741541Y-101988866D01*
X155741541Y-101988866D02*
X155693922Y-101893628D01*
X155693922Y-101893628D02*
X155693922Y-101846009D01*
X155693922Y-101846009D02*
X155741541Y-101750771D01*
X155741541Y-101750771D02*
X155836779Y-101703152D01*
X155836779Y-101703152D02*
X155979636Y-101703152D01*
X155979636Y-101703152D02*
X156074874Y-101750771D01*
X156408208Y-101703152D02*
X156789160Y-101703152D01*
X156551065Y-102369819D02*
X156551065Y-101512676D01*
X156551065Y-101512676D02*
X156598684Y-101417438D01*
X156598684Y-101417438D02*
X156693922Y-101369819D01*
X156693922Y-101369819D02*
X156789160Y-101369819D01*
X157122494Y-102274580D02*
X157170113Y-102322200D01*
X157170113Y-102322200D02*
X157122494Y-102369819D01*
X157122494Y-102369819D02*
X157074875Y-102322200D01*
X157074875Y-102322200D02*
X157122494Y-102274580D01*
X157122494Y-102274580D02*
X157122494Y-102369819D01*
X157789160Y-101369819D02*
X157884398Y-101369819D01*
X157884398Y-101369819D02*
X157979636Y-101417438D01*
X157979636Y-101417438D02*
X158027255Y-101465057D01*
X158027255Y-101465057D02*
X158074874Y-101560295D01*
X158074874Y-101560295D02*
X158122493Y-101750771D01*
X158122493Y-101750771D02*
X158122493Y-101988866D01*
X158122493Y-101988866D02*
X158074874Y-102179342D01*
X158074874Y-102179342D02*
X158027255Y-102274580D01*
X158027255Y-102274580D02*
X157979636Y-102322200D01*
X157979636Y-102322200D02*
X157884398Y-102369819D01*
X157884398Y-102369819D02*
X157789160Y-102369819D01*
X157789160Y-102369819D02*
X157693922Y-102322200D01*
X157693922Y-102322200D02*
X157646303Y-102274580D01*
X157646303Y-102274580D02*
X157598684Y-102179342D01*
X157598684Y-102179342D02*
X157551065Y-101988866D01*
X157551065Y-101988866D02*
X157551065Y-101750771D01*
X157551065Y-101750771D02*
X157598684Y-101560295D01*
X157598684Y-101560295D02*
X157646303Y-101465057D01*
X157646303Y-101465057D02*
X157693922Y-101417438D01*
X157693922Y-101417438D02*
X157789160Y-101369819D01*
X158741541Y-101369819D02*
X158836779Y-101369819D01*
X158836779Y-101369819D02*
X158932017Y-101417438D01*
X158932017Y-101417438D02*
X158979636Y-101465057D01*
X158979636Y-101465057D02*
X159027255Y-101560295D01*
X159027255Y-101560295D02*
X159074874Y-101750771D01*
X159074874Y-101750771D02*
X159074874Y-101988866D01*
X159074874Y-101988866D02*
X159027255Y-102179342D01*
X159027255Y-102179342D02*
X158979636Y-102274580D01*
X158979636Y-102274580D02*
X158932017Y-102322200D01*
X158932017Y-102322200D02*
X158836779Y-102369819D01*
X158836779Y-102369819D02*
X158741541Y-102369819D01*
X158741541Y-102369819D02*
X158646303Y-102322200D01*
X158646303Y-102322200D02*
X158598684Y-102274580D01*
X158598684Y-102274580D02*
X158551065Y-102179342D01*
X158551065Y-102179342D02*
X158503446Y-101988866D01*
X158503446Y-101988866D02*
X158503446Y-101750771D01*
X158503446Y-101750771D02*
X158551065Y-101560295D01*
X158551065Y-101560295D02*
X158598684Y-101465057D01*
X158598684Y-101465057D02*
X158646303Y-101417438D01*
X158646303Y-101417438D02*
X158741541Y-101369819D01*
X159693922Y-101369819D02*
X159789160Y-101369819D01*
X159789160Y-101369819D02*
X159884398Y-101417438D01*
X159884398Y-101417438D02*
X159932017Y-101465057D01*
X159932017Y-101465057D02*
X159979636Y-101560295D01*
X159979636Y-101560295D02*
X160027255Y-101750771D01*
X160027255Y-101750771D02*
X160027255Y-101988866D01*
X160027255Y-101988866D02*
X159979636Y-102179342D01*
X159979636Y-102179342D02*
X159932017Y-102274580D01*
X159932017Y-102274580D02*
X159884398Y-102322200D01*
X159884398Y-102322200D02*
X159789160Y-102369819D01*
X159789160Y-102369819D02*
X159693922Y-102369819D01*
X159693922Y-102369819D02*
X159598684Y-102322200D01*
X159598684Y-102322200D02*
X159551065Y-102274580D01*
X159551065Y-102274580D02*
X159503446Y-102179342D01*
X159503446Y-102179342D02*
X159455827Y-101988866D01*
X159455827Y-101988866D02*
X159455827Y-101750771D01*
X159455827Y-101750771D02*
X159503446Y-101560295D01*
X159503446Y-101560295D02*
X159551065Y-101465057D01*
X159551065Y-101465057D02*
X159598684Y-101417438D01*
X159598684Y-101417438D02*
X159693922Y-101369819D01*
X152933333Y-92554819D02*
X152457143Y-92554819D01*
X152457143Y-92554819D02*
X152457143Y-91554819D01*
X153790476Y-92554819D02*
X153219048Y-92554819D01*
X153504762Y-92554819D02*
X153504762Y-91554819D01*
X153504762Y-91554819D02*
X153409524Y-91697676D01*
X153409524Y-91697676D02*
X153314286Y-91792914D01*
X153314286Y-91792914D02*
X153219048Y-91840533D01*
D11*
X151051966Y-96050000D02*
X151085300Y-96083333D01*
X151085300Y-96083333D02*
X151118633Y-96183333D01*
X151118633Y-96183333D02*
X151118633Y-96250000D01*
X151118633Y-96250000D02*
X151085300Y-96350000D01*
X151085300Y-96350000D02*
X151018633Y-96416667D01*
X151018633Y-96416667D02*
X150951966Y-96450000D01*
X150951966Y-96450000D02*
X150818633Y-96483333D01*
X150818633Y-96483333D02*
X150718633Y-96483333D01*
X150718633Y-96483333D02*
X150585300Y-96450000D01*
X150585300Y-96450000D02*
X150518633Y-96416667D01*
X150518633Y-96416667D02*
X150451966Y-96350000D01*
X150451966Y-96350000D02*
X150418633Y-96250000D01*
X150418633Y-96250000D02*
X150418633Y-96183333D01*
X150418633Y-96183333D02*
X150451966Y-96083333D01*
X150451966Y-96083333D02*
X150485300Y-96050000D01*
X150418633Y-95416667D02*
X150418633Y-95750000D01*
X150418633Y-95750000D02*
X150751966Y-95783333D01*
X150751966Y-95783333D02*
X150718633Y-95750000D01*
X150718633Y-95750000D02*
X150685300Y-95683333D01*
X150685300Y-95683333D02*
X150685300Y-95516667D01*
X150685300Y-95516667D02*
X150718633Y-95450000D01*
X150718633Y-95450000D02*
X150751966Y-95416667D01*
X150751966Y-95416667D02*
X150818633Y-95383333D01*
X150818633Y-95383333D02*
X150985300Y-95383333D01*
X150985300Y-95383333D02*
X151051966Y-95416667D01*
X151051966Y-95416667D02*
X151085300Y-95450000D01*
X151085300Y-95450000D02*
X151118633Y-95516667D01*
X151118633Y-95516667D02*
X151118633Y-95683333D01*
X151118633Y-95683333D02*
X151085300Y-95750000D01*
X151085300Y-95750000D02*
X151051966Y-95783333D01*
X150718633Y-94983333D02*
X150685300Y-95050000D01*
X150685300Y-95050000D02*
X150651966Y-95083333D01*
X150651966Y-95083333D02*
X150585300Y-95116666D01*
X150585300Y-95116666D02*
X150551966Y-95116666D01*
X150551966Y-95116666D02*
X150485300Y-95083333D01*
X150485300Y-95083333D02*
X150451966Y-95050000D01*
X150451966Y-95050000D02*
X150418633Y-94983333D01*
X150418633Y-94983333D02*
X150418633Y-94850000D01*
X150418633Y-94850000D02*
X150451966Y-94783333D01*
X150451966Y-94783333D02*
X150485300Y-94750000D01*
X150485300Y-94750000D02*
X150551966Y-94716666D01*
X150551966Y-94716666D02*
X150585300Y-94716666D01*
X150585300Y-94716666D02*
X150651966Y-94750000D01*
X150651966Y-94750000D02*
X150685300Y-94783333D01*
X150685300Y-94783333D02*
X150718633Y-94850000D01*
X150718633Y-94850000D02*
X150718633Y-94983333D01*
X150718633Y-94983333D02*
X150751966Y-95050000D01*
X150751966Y-95050000D02*
X150785300Y-95083333D01*
X150785300Y-95083333D02*
X150851966Y-95116666D01*
X150851966Y-95116666D02*
X150985300Y-95116666D01*
X150985300Y-95116666D02*
X151051966Y-95083333D01*
X151051966Y-95083333D02*
X151085300Y-95050000D01*
X151085300Y-95050000D02*
X151118633Y-94983333D01*
X151118633Y-94983333D02*
X151118633Y-94850000D01*
X151118633Y-94850000D02*
X151085300Y-94783333D01*
X151085300Y-94783333D02*
X151051966Y-94750000D01*
X151051966Y-94750000D02*
X150985300Y-94716666D01*
X150985300Y-94716666D02*
X150851966Y-94716666D01*
X150851966Y-94716666D02*
X150785300Y-94750000D01*
X150785300Y-94750000D02*
X150751966Y-94783333D01*
X150751966Y-94783333D02*
X150718633Y-94850000D01*
X145118633Y-100550000D02*
X144785300Y-100783333D01*
X145118633Y-100950000D02*
X144418633Y-100950000D01*
X144418633Y-100950000D02*
X144418633Y-100683333D01*
X144418633Y-100683333D02*
X144451966Y-100616667D01*
X144451966Y-100616667D02*
X144485300Y-100583333D01*
X144485300Y-100583333D02*
X144551966Y-100550000D01*
X144551966Y-100550000D02*
X144651966Y-100550000D01*
X144651966Y-100550000D02*
X144718633Y-100583333D01*
X144718633Y-100583333D02*
X144751966Y-100616667D01*
X144751966Y-100616667D02*
X144785300Y-100683333D01*
X144785300Y-100683333D02*
X144785300Y-100950000D01*
X145118633Y-99883333D02*
X145118633Y-100283333D01*
X145118633Y-100083333D02*
X144418633Y-100083333D01*
X144418633Y-100083333D02*
X144518633Y-100150000D01*
X144518633Y-100150000D02*
X144585300Y-100216667D01*
X144585300Y-100216667D02*
X144618633Y-100283333D01*
X144651966Y-99283333D02*
X145118633Y-99283333D01*
X144385300Y-99450000D02*
X144885300Y-99616666D01*
X144885300Y-99616666D02*
X144885300Y-99183333D01*
D10*
X151833333Y-100559580D02*
X151785714Y-100607200D01*
X151785714Y-100607200D02*
X151642857Y-100654819D01*
X151642857Y-100654819D02*
X151547619Y-100654819D01*
X151547619Y-100654819D02*
X151404762Y-100607200D01*
X151404762Y-100607200D02*
X151309524Y-100511961D01*
X151309524Y-100511961D02*
X151261905Y-100416723D01*
X151261905Y-100416723D02*
X151214286Y-100226247D01*
X151214286Y-100226247D02*
X151214286Y-100083390D01*
X151214286Y-100083390D02*
X151261905Y-99892914D01*
X151261905Y-99892914D02*
X151309524Y-99797676D01*
X151309524Y-99797676D02*
X151404762Y-99702438D01*
X151404762Y-99702438D02*
X151547619Y-99654819D01*
X151547619Y-99654819D02*
X151642857Y-99654819D01*
X151642857Y-99654819D02*
X151785714Y-99702438D01*
X151785714Y-99702438D02*
X151833333Y-99750057D01*
X152166667Y-99654819D02*
X152785714Y-99654819D01*
X152785714Y-99654819D02*
X152452381Y-100035771D01*
X152452381Y-100035771D02*
X152595238Y-100035771D01*
X152595238Y-100035771D02*
X152690476Y-100083390D01*
X152690476Y-100083390D02*
X152738095Y-100131009D01*
X152738095Y-100131009D02*
X152785714Y-100226247D01*
X152785714Y-100226247D02*
X152785714Y-100464342D01*
X152785714Y-100464342D02*
X152738095Y-100559580D01*
X152738095Y-100559580D02*
X152690476Y-100607200D01*
X152690476Y-100607200D02*
X152595238Y-100654819D01*
X152595238Y-100654819D02*
X152309524Y-100654819D01*
X152309524Y-100654819D02*
X152214286Y-100607200D01*
X152214286Y-100607200D02*
X152166667Y-100559580D01*
D11*
X146583333Y-94051966D02*
X146550000Y-94085300D01*
X146550000Y-94085300D02*
X146450000Y-94118633D01*
X146450000Y-94118633D02*
X146383333Y-94118633D01*
X146383333Y-94118633D02*
X146283333Y-94085300D01*
X146283333Y-94085300D02*
X146216667Y-94018633D01*
X146216667Y-94018633D02*
X146183333Y-93951966D01*
X146183333Y-93951966D02*
X146150000Y-93818633D01*
X146150000Y-93818633D02*
X146150000Y-93718633D01*
X146150000Y-93718633D02*
X146183333Y-93585300D01*
X146183333Y-93585300D02*
X146216667Y-93518633D01*
X146216667Y-93518633D02*
X146283333Y-93451966D01*
X146283333Y-93451966D02*
X146383333Y-93418633D01*
X146383333Y-93418633D02*
X146450000Y-93418633D01*
X146450000Y-93418633D02*
X146550000Y-93451966D01*
X146550000Y-93451966D02*
X146583333Y-93485300D01*
X147183333Y-93418633D02*
X147050000Y-93418633D01*
X147050000Y-93418633D02*
X146983333Y-93451966D01*
X146983333Y-93451966D02*
X146950000Y-93485300D01*
X146950000Y-93485300D02*
X146883333Y-93585300D01*
X146883333Y-93585300D02*
X146850000Y-93718633D01*
X146850000Y-93718633D02*
X146850000Y-93985300D01*
X146850000Y-93985300D02*
X146883333Y-94051966D01*
X146883333Y-94051966D02*
X146916667Y-94085300D01*
X146916667Y-94085300D02*
X146983333Y-94118633D01*
X146983333Y-94118633D02*
X147116667Y-94118633D01*
X147116667Y-94118633D02*
X147183333Y-94085300D01*
X147183333Y-94085300D02*
X147216667Y-94051966D01*
X147216667Y-94051966D02*
X147250000Y-93985300D01*
X147250000Y-93985300D02*
X147250000Y-93818633D01*
X147250000Y-93818633D02*
X147216667Y-93751966D01*
X147216667Y-93751966D02*
X147183333Y-93718633D01*
X147183333Y-93718633D02*
X147116667Y-93685300D01*
X147116667Y-93685300D02*
X146983333Y-93685300D01*
X146983333Y-93685300D02*
X146916667Y-93718633D01*
X146916667Y-93718633D02*
X146883333Y-93751966D01*
X146883333Y-93751966D02*
X146850000Y-93818633D01*
X145118633Y-96016666D02*
X144785300Y-96249999D01*
X145118633Y-96416666D02*
X144418633Y-96416666D01*
X144418633Y-96416666D02*
X144418633Y-96149999D01*
X144418633Y-96149999D02*
X144451966Y-96083333D01*
X144451966Y-96083333D02*
X144485300Y-96049999D01*
X144485300Y-96049999D02*
X144551966Y-96016666D01*
X144551966Y-96016666D02*
X144651966Y-96016666D01*
X144651966Y-96016666D02*
X144718633Y-96049999D01*
X144718633Y-96049999D02*
X144751966Y-96083333D01*
X144751966Y-96083333D02*
X144785300Y-96149999D01*
X144785300Y-96149999D02*
X144785300Y-96416666D01*
X144485300Y-95749999D02*
X144451966Y-95716666D01*
X144451966Y-95716666D02*
X144418633Y-95649999D01*
X144418633Y-95649999D02*
X144418633Y-95483333D01*
X144418633Y-95483333D02*
X144451966Y-95416666D01*
X144451966Y-95416666D02*
X144485300Y-95383333D01*
X144485300Y-95383333D02*
X144551966Y-95349999D01*
X144551966Y-95349999D02*
X144618633Y-95349999D01*
X144618633Y-95349999D02*
X144718633Y-95383333D01*
X144718633Y-95383333D02*
X145118633Y-95783333D01*
X145118633Y-95783333D02*
X145118633Y-95349999D01*
X145118633Y-98350000D02*
X144785300Y-98583333D01*
X145118633Y-98750000D02*
X144418633Y-98750000D01*
X144418633Y-98750000D02*
X144418633Y-98483333D01*
X144418633Y-98483333D02*
X144451966Y-98416667D01*
X144451966Y-98416667D02*
X144485300Y-98383333D01*
X144485300Y-98383333D02*
X144551966Y-98350000D01*
X144551966Y-98350000D02*
X144651966Y-98350000D01*
X144651966Y-98350000D02*
X144718633Y-98383333D01*
X144718633Y-98383333D02*
X144751966Y-98416667D01*
X144751966Y-98416667D02*
X144785300Y-98483333D01*
X144785300Y-98483333D02*
X144785300Y-98750000D01*
X145118633Y-97683333D02*
X145118633Y-98083333D01*
X145118633Y-97883333D02*
X144418633Y-97883333D01*
X144418633Y-97883333D02*
X144518633Y-97950000D01*
X144518633Y-97950000D02*
X144585300Y-98016667D01*
X144585300Y-98016667D02*
X144618633Y-98083333D01*
X144418633Y-97450000D02*
X144418633Y-97016666D01*
X144418633Y-97016666D02*
X144685300Y-97250000D01*
X144685300Y-97250000D02*
X144685300Y-97150000D01*
X144685300Y-97150000D02*
X144718633Y-97083333D01*
X144718633Y-97083333D02*
X144751966Y-97050000D01*
X144751966Y-97050000D02*
X144818633Y-97016666D01*
X144818633Y-97016666D02*
X144985300Y-97016666D01*
X144985300Y-97016666D02*
X145051966Y-97050000D01*
X145051966Y-97050000D02*
X145085300Y-97083333D01*
X145085300Y-97083333D02*
X145118633Y-97150000D01*
X145118633Y-97150000D02*
X145118633Y-97350000D01*
X145118633Y-97350000D02*
X145085300Y-97416666D01*
X145085300Y-97416666D02*
X145051966Y-97450000D01*
X146449999Y-101318633D02*
X146216666Y-100985300D01*
X146049999Y-101318633D02*
X146049999Y-100618633D01*
X146049999Y-100618633D02*
X146316666Y-100618633D01*
X146316666Y-100618633D02*
X146383333Y-100651966D01*
X146383333Y-100651966D02*
X146416666Y-100685300D01*
X146416666Y-100685300D02*
X146449999Y-100751966D01*
X146449999Y-100751966D02*
X146449999Y-100851966D01*
X146449999Y-100851966D02*
X146416666Y-100918633D01*
X146416666Y-100918633D02*
X146383333Y-100951966D01*
X146383333Y-100951966D02*
X146316666Y-100985300D01*
X146316666Y-100985300D02*
X146049999Y-100985300D01*
X147083333Y-100618633D02*
X146749999Y-100618633D01*
X146749999Y-100618633D02*
X146716666Y-100951966D01*
X146716666Y-100951966D02*
X146749999Y-100918633D01*
X146749999Y-100918633D02*
X146816666Y-100885300D01*
X146816666Y-100885300D02*
X146983333Y-100885300D01*
X146983333Y-100885300D02*
X147049999Y-100918633D01*
X147049999Y-100918633D02*
X147083333Y-100951966D01*
X147083333Y-100951966D02*
X147116666Y-101018633D01*
X147116666Y-101018633D02*
X147116666Y-101185300D01*
X147116666Y-101185300D02*
X147083333Y-101251966D01*
X147083333Y-101251966D02*
X147049999Y-101285300D01*
X147049999Y-101285300D02*
X146983333Y-101318633D01*
X146983333Y-101318633D02*
X146816666Y-101318633D01*
X146816666Y-101318633D02*
X146749999Y-101285300D01*
X146749999Y-101285300D02*
X146716666Y-101251966D01*
X147350000Y-100618633D02*
X147816666Y-100618633D01*
X147816666Y-100618633D02*
X147516666Y-101318633D01*
D10*
X151833333Y-102159580D02*
X151785714Y-102207200D01*
X151785714Y-102207200D02*
X151642857Y-102254819D01*
X151642857Y-102254819D02*
X151547619Y-102254819D01*
X151547619Y-102254819D02*
X151404762Y-102207200D01*
X151404762Y-102207200D02*
X151309524Y-102111961D01*
X151309524Y-102111961D02*
X151261905Y-102016723D01*
X151261905Y-102016723D02*
X151214286Y-101826247D01*
X151214286Y-101826247D02*
X151214286Y-101683390D01*
X151214286Y-101683390D02*
X151261905Y-101492914D01*
X151261905Y-101492914D02*
X151309524Y-101397676D01*
X151309524Y-101397676D02*
X151404762Y-101302438D01*
X151404762Y-101302438D02*
X151547619Y-101254819D01*
X151547619Y-101254819D02*
X151642857Y-101254819D01*
X151642857Y-101254819D02*
X151785714Y-101302438D01*
X151785714Y-101302438D02*
X151833333Y-101350057D01*
X152214286Y-101350057D02*
X152261905Y-101302438D01*
X152261905Y-101302438D02*
X152357143Y-101254819D01*
X152357143Y-101254819D02*
X152595238Y-101254819D01*
X152595238Y-101254819D02*
X152690476Y-101302438D01*
X152690476Y-101302438D02*
X152738095Y-101350057D01*
X152738095Y-101350057D02*
X152785714Y-101445295D01*
X152785714Y-101445295D02*
X152785714Y-101540533D01*
X152785714Y-101540533D02*
X152738095Y-101683390D01*
X152738095Y-101683390D02*
X152166667Y-102254819D01*
X152166667Y-102254819D02*
X152785714Y-102254819D01*
D11*
X147066666Y-98018633D02*
X147066666Y-98585300D01*
X147066666Y-98585300D02*
X147100000Y-98651966D01*
X147100000Y-98651966D02*
X147133333Y-98685300D01*
X147133333Y-98685300D02*
X147200000Y-98718633D01*
X147200000Y-98718633D02*
X147333333Y-98718633D01*
X147333333Y-98718633D02*
X147400000Y-98685300D01*
X147400000Y-98685300D02*
X147433333Y-98651966D01*
X147433333Y-98651966D02*
X147466666Y-98585300D01*
X147466666Y-98585300D02*
X147466666Y-98018633D01*
X147733333Y-98018633D02*
X148199999Y-98018633D01*
X148199999Y-98018633D02*
X147899999Y-98718633D01*
X146483333Y-92351966D02*
X146450000Y-92385300D01*
X146450000Y-92385300D02*
X146350000Y-92418633D01*
X146350000Y-92418633D02*
X146283333Y-92418633D01*
X146283333Y-92418633D02*
X146183333Y-92385300D01*
X146183333Y-92385300D02*
X146116667Y-92318633D01*
X146116667Y-92318633D02*
X146083333Y-92251966D01*
X146083333Y-92251966D02*
X146050000Y-92118633D01*
X146050000Y-92118633D02*
X146050000Y-92018633D01*
X146050000Y-92018633D02*
X146083333Y-91885300D01*
X146083333Y-91885300D02*
X146116667Y-91818633D01*
X146116667Y-91818633D02*
X146183333Y-91751966D01*
X146183333Y-91751966D02*
X146283333Y-91718633D01*
X146283333Y-91718633D02*
X146350000Y-91718633D01*
X146350000Y-91718633D02*
X146450000Y-91751966D01*
X146450000Y-91751966D02*
X146483333Y-91785300D01*
X147116667Y-91718633D02*
X146783333Y-91718633D01*
X146783333Y-91718633D02*
X146750000Y-92051966D01*
X146750000Y-92051966D02*
X146783333Y-92018633D01*
X146783333Y-92018633D02*
X146850000Y-91985300D01*
X146850000Y-91985300D02*
X147016667Y-91985300D01*
X147016667Y-91985300D02*
X147083333Y-92018633D01*
X147083333Y-92018633D02*
X147116667Y-92051966D01*
X147116667Y-92051966D02*
X147150000Y-92118633D01*
X147150000Y-92118633D02*
X147150000Y-92285300D01*
X147150000Y-92285300D02*
X147116667Y-92351966D01*
X147116667Y-92351966D02*
X147083333Y-92385300D01*
X147083333Y-92385300D02*
X147016667Y-92418633D01*
X147016667Y-92418633D02*
X146850000Y-92418633D01*
X146850000Y-92418633D02*
X146783333Y-92385300D01*
X146783333Y-92385300D02*
X146750000Y-92351966D01*
X145118633Y-94550000D02*
X144785300Y-94783333D01*
X145118633Y-94950000D02*
X144418633Y-94950000D01*
X144418633Y-94950000D02*
X144418633Y-94683333D01*
X144418633Y-94683333D02*
X144451966Y-94616667D01*
X144451966Y-94616667D02*
X144485300Y-94583333D01*
X144485300Y-94583333D02*
X144551966Y-94550000D01*
X144551966Y-94550000D02*
X144651966Y-94550000D01*
X144651966Y-94550000D02*
X144718633Y-94583333D01*
X144718633Y-94583333D02*
X144751966Y-94616667D01*
X144751966Y-94616667D02*
X144785300Y-94683333D01*
X144785300Y-94683333D02*
X144785300Y-94950000D01*
X145118633Y-93883333D02*
X145118633Y-94283333D01*
X145118633Y-94083333D02*
X144418633Y-94083333D01*
X144418633Y-94083333D02*
X144518633Y-94150000D01*
X144518633Y-94150000D02*
X144585300Y-94216667D01*
X144585300Y-94216667D02*
X144618633Y-94283333D01*
X144485300Y-93616666D02*
X144451966Y-93583333D01*
X144451966Y-93583333D02*
X144418633Y-93516666D01*
X144418633Y-93516666D02*
X144418633Y-93350000D01*
X144418633Y-93350000D02*
X144451966Y-93283333D01*
X144451966Y-93283333D02*
X144485300Y-93250000D01*
X144485300Y-93250000D02*
X144551966Y-93216666D01*
X144551966Y-93216666D02*
X144618633Y-93216666D01*
X144618633Y-93216666D02*
X144718633Y-93250000D01*
X144718633Y-93250000D02*
X145118633Y-93650000D01*
X145118633Y-93650000D02*
X145118633Y-93216666D01*
X147718633Y-97216666D02*
X147385300Y-97449999D01*
X147718633Y-97616666D02*
X147018633Y-97616666D01*
X147018633Y-97616666D02*
X147018633Y-97349999D01*
X147018633Y-97349999D02*
X147051966Y-97283333D01*
X147051966Y-97283333D02*
X147085300Y-97249999D01*
X147085300Y-97249999D02*
X147151966Y-97216666D01*
X147151966Y-97216666D02*
X147251966Y-97216666D01*
X147251966Y-97216666D02*
X147318633Y-97249999D01*
X147318633Y-97249999D02*
X147351966Y-97283333D01*
X147351966Y-97283333D02*
X147385300Y-97349999D01*
X147385300Y-97349999D02*
X147385300Y-97616666D01*
X147718633Y-96549999D02*
X147718633Y-96949999D01*
X147718633Y-96749999D02*
X147018633Y-96749999D01*
X147018633Y-96749999D02*
X147118633Y-96816666D01*
X147118633Y-96816666D02*
X147185300Y-96883333D01*
X147185300Y-96883333D02*
X147218633Y-96949999D01*
X148151966Y-99516666D02*
X148185300Y-99549999D01*
X148185300Y-99549999D02*
X148218633Y-99649999D01*
X148218633Y-99649999D02*
X148218633Y-99716666D01*
X148218633Y-99716666D02*
X148185300Y-99816666D01*
X148185300Y-99816666D02*
X148118633Y-99883333D01*
X148118633Y-99883333D02*
X148051966Y-99916666D01*
X148051966Y-99916666D02*
X147918633Y-99949999D01*
X147918633Y-99949999D02*
X147818633Y-99949999D01*
X147818633Y-99949999D02*
X147685300Y-99916666D01*
X147685300Y-99916666D02*
X147618633Y-99883333D01*
X147618633Y-99883333D02*
X147551966Y-99816666D01*
X147551966Y-99816666D02*
X147518633Y-99716666D01*
X147518633Y-99716666D02*
X147518633Y-99649999D01*
X147518633Y-99649999D02*
X147551966Y-99549999D01*
X147551966Y-99549999D02*
X147585300Y-99516666D01*
X147751966Y-98916666D02*
X148218633Y-98916666D01*
X147485300Y-99083333D02*
X147985300Y-99249999D01*
X147985300Y-99249999D02*
X147985300Y-98816666D01*
D12*
%TO.C,L1*%
X150190000Y-92950000D02*
X151540000Y-92950000D01*
X150190000Y-98870000D02*
X150190000Y-92950000D01*
X150190000Y-98870000D02*
X151540000Y-98870000D01*
X155910000Y-92950000D02*
X154560000Y-92950000D01*
X155910000Y-98870000D02*
X154560000Y-98870000D01*
X155910000Y-98870000D02*
X155910000Y-92950000D01*
%TO.C,C58*%
X149227836Y-95340000D02*
X149012164Y-95340000D01*
X149227836Y-96060000D02*
X149012164Y-96060000D01*
%TO.C,R14*%
X146263641Y-98720000D02*
X145956359Y-98720000D01*
X146263641Y-99480000D02*
X145956359Y-99480000D01*
%TO.C,C3*%
X149865580Y-99490000D02*
X149584420Y-99490000D01*
X149865580Y-100510000D02*
X149584420Y-100510000D01*
%TO.C,C6*%
X148715580Y-93790000D02*
X148434420Y-93790000D01*
X148715580Y-94810000D02*
X148434420Y-94810000D01*
%TO.C,R2*%
X145936359Y-95720000D02*
X146243641Y-95720000D01*
X145936359Y-96480000D02*
X146243641Y-96480000D01*
%TO.C,R13*%
X146263641Y-97720000D02*
X145956359Y-97720000D01*
X146263641Y-98480000D02*
X145956359Y-98480000D01*
D13*
%TO.C,J1*%
X143850000Y-95300000D02*
X144050000Y-95500000D01*
X144050000Y-95500000D02*
X143323000Y-95500000D01*
X144050000Y-95500000D02*
X143850000Y-95700000D01*
D12*
%TO.C,R57*%
X146263641Y-99720000D02*
X145956359Y-99720000D01*
X146263641Y-100480000D02*
X145956359Y-100480000D01*
%TO.C,C2*%
X149865580Y-100990000D02*
X149584420Y-100990000D01*
X149865580Y-102010000D02*
X149584420Y-102010000D01*
D13*
%TO.C,J2*%
X156900000Y-95500000D02*
X157627000Y-95500000D01*
X157427000Y-95700000D02*
X157627000Y-95500000D01*
X157627000Y-95500000D02*
X157427000Y-95300000D01*
D12*
%TO.C,U7*%
X148887500Y-96265000D02*
X148287500Y-96265000D01*
X148887500Y-96265000D02*
X149487500Y-96265000D01*
X148887500Y-98135000D02*
X148287500Y-98135000D01*
X148887500Y-98135000D02*
X149487500Y-98135000D01*
X150527500Y-97940000D02*
X150197500Y-97700000D01*
X150527500Y-97460000D01*
X150527500Y-97940000D01*
G36*
X150527500Y-97940000D02*
G01*
X150197500Y-97700000D01*
X150527500Y-97460000D01*
X150527500Y-97940000D01*
G37*
%TO.C,C5*%
X148715580Y-92290000D02*
X148434420Y-92290000D01*
X148715580Y-93310000D02*
X148434420Y-93310000D01*
%TO.C,R12*%
X146263641Y-94720000D02*
X145956359Y-94720000D01*
X146263641Y-95480000D02*
X145956359Y-95480000D01*
%TO.C,R1*%
X146263641Y-96720000D02*
X145956359Y-96720000D01*
X146263641Y-97480000D02*
X145956359Y-97480000D01*
%TO.C,C4*%
X149327836Y-98340000D02*
X149112164Y-98340000D01*
X149327836Y-99060000D02*
X149112164Y-99060000D01*
%TD*%
%LPC*%
D14*
%TO.C,L1*%
X153050000Y-97960000D03*
X153050000Y-93860000D03*
%TD*%
D15*
%TO.C,C58*%
X149600000Y-95700000D03*
X148640000Y-95700000D03*
%TD*%
D16*
%TO.C,R14*%
X146620000Y-99100000D03*
X145600000Y-99100000D03*
%TD*%
D17*
%TO.C,C3*%
X150500000Y-100000000D03*
X148950000Y-100000000D03*
%TD*%
%TO.C,C6*%
X149350000Y-94300000D03*
X147800000Y-94300000D03*
%TD*%
D18*
%TO.C,R2*%
X145580000Y-96100000D03*
X146600000Y-96100000D03*
%TD*%
D16*
%TO.C,R13*%
X146620000Y-98100000D03*
X145600000Y-98100000D03*
%TD*%
D19*
%TO.C,J1*%
X142350000Y-92500000D03*
X142350000Y-94500000D03*
X142350000Y-96500000D03*
X142350000Y-98500000D03*
X142350000Y-100500000D03*
%TD*%
D16*
%TO.C,R57*%
X146620000Y-100100000D03*
X145600000Y-100100000D03*
%TD*%
D17*
%TO.C,C2*%
X150500000Y-101500000D03*
X148950000Y-101500000D03*
%TD*%
D19*
%TO.C,J2*%
X158650000Y-92500000D03*
X158650000Y-94500000D03*
X158650000Y-96500000D03*
X158650000Y-98500000D03*
X158650000Y-100500000D03*
%TD*%
D20*
%TO.C,U7*%
X149600000Y-97700000D03*
X149600000Y-97200000D03*
X149600000Y-96700000D03*
X148175000Y-96700000D03*
X148175000Y-97200000D03*
X148175000Y-97700000D03*
%TD*%
D17*
%TO.C,C5*%
X149350000Y-92800000D03*
X147800000Y-92800000D03*
%TD*%
D16*
%TO.C,R12*%
X146620000Y-95100000D03*
X145600000Y-95100000D03*
%TD*%
%TO.C,R1*%
X146620000Y-97100000D03*
X145600000Y-97100000D03*
%TD*%
D15*
%TO.C,C4*%
X149700000Y-98700000D03*
X148740000Y-98700000D03*
%TD*%
%LPD*%
M02*
