%TF.GenerationSoftware,KiCad,Pcbnew,9.0.1*%
%TF.CreationDate,2025-04-30T15:54:22+02:00*%
%TF.ProjectId,board,626f6172-642e-46b6-9963-61645f706362,rev?*%
%TF.SameCoordinates,Original*%
%TF.FileFunction,Profile,NP*%
%FSLAX46Y46*%
G04 Gerber Fmt 4.6, Leading zero omitted, Abs format (unit mm)*
G04 Created by KiCad (PCBNEW 9.0.1) date 2025-04-30 15:54:22*
%MOMM*%
%LPD*%
G01*
G04 APERTURE LIST*
%TA.AperFunction,Profile*%
%ADD10C,0.050000*%
%TD*%
G04 APERTURE END LIST*
D10*
X161000000Y-101000000D02*
X161000000Y-100500000D01*
X142000000Y-90000000D02*
X159000000Y-90000000D01*
X161000000Y-101000000D02*
G75*
G02*
X159000000Y-103000000I-2000000J0D01*
G01*
X159000000Y-103000000D02*
X142000000Y-103000000D01*
X159000000Y-90000000D02*
G75*
G02*
X161000000Y-92000000I0J-2000000D01*
G01*
X140000000Y-101000000D02*
X140000000Y-100500000D01*
X142000000Y-103000000D02*
G75*
G02*
X140000000Y-101000000I0J2000000D01*
G01*
X161000000Y-92500000D02*
X161000000Y-92000000D01*
X140000000Y-92500000D02*
X140000000Y-92000000D01*
X140000000Y-92000000D02*
G75*
G02*
X142000000Y-90000000I2000000J0D01*
G01*
%TO.C,J1*%
X140000000Y-92500000D02*
X140000000Y-94700000D01*
X140000000Y-96300000D02*
X140000000Y-100500000D01*
X140500000Y-95800000D02*
X142800000Y-95800000D01*
X142800000Y-95200000D02*
X140500000Y-95200000D01*
X140000000Y-96300000D02*
G75*
G02*
X140500000Y-95800000I500001J-1D01*
G01*
X140500000Y-95200000D02*
G75*
G02*
X140000000Y-94700000I1J500001D01*
G01*
X142800000Y-95200000D02*
G75*
G02*
X142800000Y-95800000I0J-300000D01*
G01*
%TO.C,J2*%
X158100000Y-95800000D02*
X160500000Y-95800000D01*
X160500000Y-95200000D02*
X158100000Y-95200000D01*
X161000000Y-92500000D02*
X161000000Y-94700000D01*
X161000000Y-96300000D02*
X161000000Y-100500000D01*
X158100000Y-95800000D02*
G75*
G02*
X158100000Y-95200000I0J300000D01*
G01*
X160500000Y-95800000D02*
G75*
G02*
X161000000Y-96300000I-1J-500001D01*
G01*
X161000000Y-94700000D02*
G75*
G02*
X160500000Y-95200000I-500001J1D01*
G01*
%TD*%
M02*
